<svg xmlns="http://www.w3.org/2000/svg" viewBox="0 0 880 384"><defs><style>.a,.b{fill:none;stroke:#000;stroke-miterlimit:10;}.b{stroke-width:2px;}</style></defs><title>generation-chart</title><path d="M454.67,10.18V23.67h-1.74V10.18Z"/><path d="M458,23.67V15.33h-1.36V14H458v-.47a4.56,4.56,0,0,1,1.12-3.38,3.37,3.37,0,0,1,2.36-.9,4.08,4.08,0,0,1,1.5.28l-.24,1.36a2.63,2.63,0,0,0-1.12-.22c-1.5,0-1.88,1.32-1.88,2.8V14h2.34v1.34h-2.34v8.34Z"/><path d="M468.57,14l2.12,5.72c.22.64.46,1.4.62,2h0c.18-.58.38-1.32.62-2L473.89,14h1.86l-2.64,6.9c-1.26,3.32-2.12,5-3.32,6.06a4.77,4.77,0,0,1-2.16,1.14l-.44-1.48a4.66,4.66,0,0,0,1.54-.86,5.34,5.34,0,0,0,1.48-2,1.26,1.26,0,0,0,.14-.42,1.53,1.53,0,0,0-.12-.46L466.65,14Z"/><path d="M485.92,18.75a4.74,4.74,0,0,1-4.83,5.14c-2.62,0-4.64-1.92-4.64-5,0-3.24,2.12-5.15,4.8-5.15S485.92,15.79,485.92,18.75Zm-7.69.1c0,2.12,1.22,3.72,2.94,3.72s2.94-1.58,2.94-3.76c0-1.64-.82-3.73-2.9-3.73S478.23,17,478.23,18.85Z"/><path d="M496.23,21c0,1,0,1.88.08,2.64h-1.56l-.1-1.58h0a3.64,3.64,0,0,1-3.2,1.8c-1.52,0-3.34-.84-3.34-4.24V14h1.76v5.36c0,1.84.56,3.08,2.16,3.08a2.54,2.54,0,0,0,2.32-1.6,2.57,2.57,0,0,0,.16-.9V14h1.76Z"/><path d="M504.37,19.15a3.1,3.1,0,0,0,3.32,3.36,6.36,6.36,0,0,0,2.68-.5l.3,1.26a7.84,7.84,0,0,1-3.22.6c-3,0-4.76-2-4.76-4.88s1.72-5.23,4.54-5.23c3.16,0,4,2.79,4,4.57a6.64,6.64,0,0,1-.06.82Zm5.16-1.26c0-1.12-.46-2.86-2.44-2.86-1.78,0-2.56,1.64-2.7,2.86Z"/><path d="M514.17,14l1.38,2.08c.36.54.66,1,1,1.58h.06c.32-.58.64-1.08,1-1.61l1.36-2h1.9l-3.3,4.68,3.4,5h-2l-1.42-2.18c-.38-.56-.7-1.1-1-1.68h0c-.32.58-.66,1.1-1,1.68L514,23.67h-1.94l3.44-4.94L512.21,14Z"/><path d="M522.61,17.15c0-1.24,0-2.24-.08-3.16h1.58l.08,1.66h0a3.79,3.79,0,0,1,3.44-1.89c2.34,0,4.1,2,4.1,4.93,0,3.48-2.12,5.2-4.4,5.2a3.39,3.39,0,0,1-3-1.52h0v5.26h-1.74Zm1.74,2.58a4,4,0,0,0,.08.72,2.72,2.72,0,0,0,2.64,2.06c1.86,0,2.94-1.52,2.94-3.74,0-1.94-1-3.6-2.88-3.6a2.81,2.81,0,0,0-2.66,2.18,2.85,2.85,0,0,0-.12.72Z"/><path d="M534,9.46h1.76V23.67H534Z"/><path d="M540.67,11.26a1.09,1.09,0,0,1-2.18,0,1.07,1.07,0,0,1,1.1-1.1A1,1,0,0,1,540.67,11.26Zm-2,12.41V14h1.76v9.68Z"/><path d="M550.29,23.31a6.48,6.48,0,0,1-2.78.56,4.6,4.6,0,0,1-4.82-4.94,4.92,4.92,0,0,1,5.2-5.14,5.73,5.73,0,0,1,2.44.5l-.4,1.36a4.08,4.08,0,0,0-2-.46,3.35,3.35,0,0,0-3.42,3.66,3.32,3.32,0,0,0,3.36,3.62A5,5,0,0,0,550,22Z"/><path d="M554.31,11.26a1.09,1.09,0,0,1-2.18,0,1.07,1.07,0,0,1,1.1-1.1A1,1,0,0,1,554.31,11.26Zm-2,12.41V14h1.76v9.68Z"/><path d="M559.15,11.2V14h2.52v1.34h-2.52v5.22c0,1.2.34,1.88,1.32,1.88a3.92,3.92,0,0,0,1-.12l.08,1.32a4.31,4.31,0,0,1-1.56.24,2.44,2.44,0,0,1-1.9-.74,3.59,3.59,0,0,1-.68-2.52V15.33h-1.5V14h1.5V11.66Z"/><path d="M563.65,9.46h1.76V23.67h-1.76Z"/><path d="M569,14l2.12,5.72c.22.64.46,1.4.62,2h0c.18-.58.38-1.32.62-2L574.33,14h1.86l-2.64,6.9c-1.26,3.32-2.12,5-3.32,6.06a4.77,4.77,0,0,1-2.16,1.14l-.44-1.48a4.66,4.66,0,0,0,1.54-.86,5.34,5.34,0,0,0,1.48-2,1.26,1.26,0,0,0,.14-.42,1.53,1.53,0,0,0-.12-.46L567.09,14Z"/><path d="M590.39,9.46V21.17c0,.86,0,1.84.08,2.5h-1.58L588.81,22h0a3.58,3.58,0,0,1-3.3,1.9c-2.34,0-4.14-2-4.14-4.92,0-3.22,2-5.21,4.34-5.21a3.22,3.22,0,0,1,2.92,1.49h0V9.46Zm-1.76,8.47a3.11,3.11,0,0,0-.08-.74,2.59,2.59,0,0,0-2.54-2c-1.82,0-2.9,1.6-2.9,3.74,0,2,1,3.58,2.86,3.58a2.65,2.65,0,0,0,2.58-2.1,3.06,3.06,0,0,0,.08-.76Z"/><path d="M594.29,19.15a3.1,3.1,0,0,0,3.32,3.36,6.36,6.36,0,0,0,2.68-.5l.3,1.26a7.84,7.84,0,0,1-3.22.6c-3,0-4.76-2-4.76-4.88s1.72-5.23,4.54-5.23c3.16,0,4,2.79,4,4.57a6.64,6.64,0,0,1-.06.82Zm5.16-1.26c0-1.12-.46-2.86-2.44-2.86-1.78,0-2.56,1.64-2.7,2.86Z"/><path d="M603.51,23.67V15.33h-1.36V14h1.36v-.53a3.88,3.88,0,0,1,4.22-4.22,4.84,4.84,0,0,1,2.46.64l-.5,1.34a3.7,3.7,0,0,0-2-.56c-1.86,0-2.4,1.3-2.4,2.84V14h5.62v9.68h-1.74V15.33h-3.88v8.34Z"/><path d="M613.79,16.61c0-1,0-1.82-.08-2.62h1.56l.1,1.59h0a3.58,3.58,0,0,1,3.2-1.82c1.34,0,3.42.81,3.42,4.13v5.78h-1.76V18.09c0-1.56-.58-2.86-2.24-2.86a2.49,2.49,0,0,0-2.36,1.8,2.53,2.53,0,0,0-.12.82v5.82h-1.76Z"/><path d="M625.87,19.15a3.1,3.1,0,0,0,3.32,3.36,6.36,6.36,0,0,0,2.68-.5l.3,1.26a7.84,7.84,0,0,1-3.22.6c-3,0-4.76-2-4.76-4.88s1.72-5.23,4.54-5.23c3.16,0,4,2.79,4,4.57a6.64,6.64,0,0,1-.06.82ZM631,17.89c0-1.12-.46-2.86-2.44-2.86-1.78,0-2.56,1.64-2.7,2.86Z"/><path d="M634.49,15.58a1.19,1.19,0,1,1,2.38,0,1.19,1.19,0,1,1-2.38,0Zm0,7.07a1.19,1.19,0,1,1,2.38,0,1.19,1.19,0,1,1-2.38,0Z"/><path d="M22.51,291.59H16.78L9,295.85v-2l3.72-1.9c1-.52,1.84-.92,2.78-1.34v0c-.88-.38-1.76-.84-2.78-1.36L9,287.29v-2l7.74,4.52h5.75Z"/><path d="M17.58,276.59c3.59,0,5.15,2.48,5.15,4.82,0,2.62-1.92,4.64-5,4.64-3.25,0-5.15-2.12-5.15-4.8S14.62,276.59,17.58,276.59Zm.1,7.68c2.13,0,3.73-1.22,3.73-2.94s-1.58-2.94-3.77-2.94c-1.64,0-3.72.82-3.72,2.9S15.84,284.27,17.68,284.27Z"/><path d="M19.87,266.27c1,0,1.88,0,2.64-.08v1.56l-1.58.1v0a3.64,3.64,0,0,1,1.8,3.2c0,1.52-.84,3.34-4.24,3.34H12.82v-1.76h5.36c1.85,0,3.09-.56,3.09-2.16a2.54,2.54,0,0,0-1.6-2.32,2.63,2.63,0,0,0-.91-.16H12.82v-1.76Z"/><path d="M8.8,261.57a23.07,23.07,0,0,1,4.74,1.88l.14,1.12A28.31,28.31,0,0,0,9,263.39Z"/><path d="M8.3,259.65v-1.76H22.51v1.76Z"/><path d="M8.3,254.93v-1.76H22.51v1.76Z"/><path d="M18,245a3.1,3.1,0,0,0,3.36-3.32,6.36,6.36,0,0,0-.5-2.68l1.26-.3a7.84,7.84,0,0,1,.6,3.22c0,3-2,4.76-4.88,4.76S12.6,245,12.6,242.13c0-3.16,2.78-4,4.57-4a7,7,0,0,1,.82.06Zm-1.27-5.16c-1.12,0-2.86.46-2.86,2.44,0,1.78,1.64,2.56,2.86,2.7Z"/><path d="M15.44,236c-1,0-1.82,0-2.62.08v-1.56l1.6-.1v0a3.56,3.56,0,0,1-1.82-3.2c0-1.34.8-3.42,4.12-3.42h5.79v1.76H16.92c-1.56,0-2.86.58-2.86,2.24a2.5,2.5,0,0,0,1.8,2.36,2.53,2.53,0,0,0,.82.12h5.83V236Z"/><path d="M8.3,216.49H20c.87,0,1.85,0,2.51-.08V218l-1.68.08v0a3.58,3.58,0,0,1,1.9,3.3c0,2.34-2,4.14-4.93,4.14-3.22,0-5.2-2-5.2-4.34a3.24,3.24,0,0,1,1.48-2.92v0H8.3Zm8.46,1.76a3.11,3.11,0,0,0-.74.08,2.59,2.59,0,0,0-2,2.54c0,1.82,1.6,2.9,3.74,2.9,2,0,3.59-1,3.59-2.86a2.65,2.65,0,0,0-2.1-2.58,3.16,3.16,0,0,0-.76-.08Z"/><path d="M19.87,201.23c1,0,1.88,0,2.64-.08v1.56l-1.58.1v0a3.64,3.64,0,0,1,1.8,3.2c0,1.52-.84,3.34-4.24,3.34H12.82v-1.76h5.36c1.85,0,3.09-.56,3.09-2.16a2.54,2.54,0,0,0-1.6-2.32,2.63,2.63,0,0,0-.91-.16H12.82v-1.76Z"/><path d="M16,198.31c-1.24,0-2.24,0-3.16.08v-1.58l1.66-.08v0a3.81,3.81,0,0,1-1.88-3.44c0-2.34,2-4.1,4.92-4.1,3.49,0,5.21,2.12,5.21,4.4a3.39,3.39,0,0,1-1.52,3v0h5.26v1.74Zm2.59-1.74a4,4,0,0,0,.72-.08,2.72,2.72,0,0,0,2.06-2.64c0-1.86-1.52-2.94-3.75-2.94-1.94,0-3.6,1-3.6,2.88a2.81,2.81,0,0,0,2.18,2.66,2.93,2.93,0,0,0,.72.12Z"/><path d="M12.82,182l4.93-1.28c1.08-.28,2.08-.54,3.08-.72v-.06c-1-.22-2-.54-3.07-.86l-4.94-1.58V176l4.85-1.5c1.16-.36,2.18-.64,3.16-.86v-.06a29.82,29.82,0,0,1-3.15-.74l-4.86-1.38v-1.74l9.69,3.12v1.6l-4.63,1.48a32.26,32.26,0,0,1-3.18.86v0a29.43,29.43,0,0,1,3.21.88l4.6,1.56v1.6l-9.69,2.92Z"/><path d="M10.1,166a1.09,1.09,0,0,1,0,2.18,1.07,1.07,0,0,1-1.1-1.1A1,1,0,0,1,10.1,166Zm12.41,2H12.82v-1.76h9.69Z"/><path d="M10,161.17h2.78v-2.52h1.34v2.52h5.22c1.21,0,1.89-.34,1.89-1.32a3.92,3.92,0,0,0-.12-1l1.32-.08a4.31,4.31,0,0,1,.24,1.56,2.44,2.44,0,0,1-.74,1.9,3.59,3.59,0,0,1-2.52.68H14.16v1.5H12.82v-1.5H10.5Z"/><path d="M8.3,156.67v-1.76h6v0a3.27,3.27,0,0,1-1.24-1.26,3.62,3.62,0,0,1-.5-1.8c0-1.3.8-3.38,4.14-3.38h5.77v1.76H16.94c-1.56,0-2.88.58-2.88,2.24a2.53,2.53,0,0,0,1.76,2.36,2.15,2.15,0,0,0,.85.12h5.84v1.76Z"/><path d="M14.42,146a1.19,1.19,0,1,1,0-2.38,1.19,1.19,0,1,1,0,2.38Zm7.07,0a1.19,1.19,0,1,1,0-2.38,1.19,1.19,0,1,1,0,2.38Z"/><path d="M258.33,68.65V58.54h1.43L263,63.65a28.57,28.57,0,0,1,1.81,3.29l0,0c-.12-1.35-.15-2.58-.15-4.15V58.54h1.23V68.65H264.6l-3.21-5.13a33.07,33.07,0,0,1-1.89-3.38l0,0c.07,1.27.1,2.49.1,4.17v4.32Z"/><path d="M274.73,65a3.55,3.55,0,0,1-3.62,3.85,3.45,3.45,0,0,1-3.48-3.73,3.55,3.55,0,0,1,3.6-3.86A3.44,3.44,0,0,1,274.73,65ZM269,65c0,1.59.91,2.79,2.2,2.79s2.21-1.18,2.21-2.82c0-1.23-.62-2.79-2.18-2.79S269,63.65,269,65Z"/><path d="M278,59.3v2.09h1.89v1H278v3.92c0,.9.26,1.41,1,1.41a3.22,3.22,0,0,0,.77-.09l.06,1a3.37,3.37,0,0,1-1.17.18,1.84,1.84,0,0,1-1.43-.56,2.71,2.71,0,0,1-.51-1.89v-4h-1.12v-1h1.12V59.65Z"/><path d="M281.36,58h1.32v4.53h0a2.4,2.4,0,0,1,.94-.93,2.79,2.79,0,0,1,1.35-.38c1,0,2.54.6,2.54,3.11v4.32h-1.32V64.48c0-1.17-.44-2.16-1.68-2.16a1.89,1.89,0,0,0-1.77,1.32,1.5,1.5,0,0,0-.09.63v4.38h-1.32Z"/><path d="M291.15,59.35a.77.77,0,0,1-.84.81.78.78,0,0,1-.79-.81.8.8,0,0,1,.82-.83A.78.78,0,0,1,291.15,59.35Zm-1.47,9.3V61.39H291v7.26Z"/><path d="M293.19,63.35c0-.75,0-1.36-.06-2h1.17l.08,1.2h0a2.67,2.67,0,0,1,2.4-1.37c1,0,2.56.6,2.56,3.09v4.34h-1.32V64.46c0-1.17-.43-2.14-1.68-2.14a1.94,1.94,0,0,0-1.86,2v4.37h-1.32Z"/><path d="M307.77,61.39c0,.53-.06,1.11-.06,2V67.6c0,1.66-.33,2.68-1,3.31a3.86,3.86,0,0,1-2.64.87,4.72,4.72,0,0,1-2.42-.6l.33-1a4.09,4.09,0,0,0,2.13.57c1.35,0,2.34-.71,2.34-2.54V67.4h0a2.57,2.57,0,0,1-2.31,1.22A3.25,3.25,0,0,1,301,65.08c0-2.46,1.61-3.86,3.27-3.86a2.43,2.43,0,0,1,2.27,1.26h0l.06-1.09Zm-1.36,2.86a1.94,1.94,0,0,0-1.92-2c-1.26,0-2.16,1.06-2.16,2.74,0,1.43.72,2.61,2.14,2.61a1.93,1.93,0,0,0,1.83-1.35,2.13,2.13,0,0,0,.11-.7Z"/><path d="M354.86,58.67a18.62,18.62,0,0,1,2.77-.21,5.83,5.83,0,0,1,4.1,1.26,4.7,4.7,0,0,1,1.42,3.63,5.36,5.36,0,0,1-1.45,3.93,6.22,6.22,0,0,1-4.47,1.46,22.32,22.32,0,0,1-2.37-.12Zm1.3,8.94a8.17,8.17,0,0,0,1.32.08c2.79,0,4.31-1.56,4.31-4.29,0-2.39-1.34-3.9-4.1-3.9a8,8,0,0,0-1.53.13Z"/><path d="M365.6,65.26a2.33,2.33,0,0,0,2.49,2.52,4.8,4.8,0,0,0,2-.38l.22.95a5.85,5.85,0,0,1-2.41.45,3.37,3.37,0,0,1-3.57-3.66c0-2.19,1.29-3.92,3.4-3.92,2.37,0,3,2.09,3,3.42,0,.28,0,.48,0,.62Zm3.87-1a1.88,1.88,0,0,0-1.83-2.14,2.19,2.19,0,0,0-2,2.14Z"/><path d="M372.2,67.3a3.48,3.48,0,0,0,1.74.52c1,0,1.4-.48,1.4-1.08s-.37-1-1.34-1.33c-1.31-.47-1.92-1.19-1.92-2.06a2.23,2.23,0,0,1,2.5-2.13,3.64,3.64,0,0,1,1.79.45l-.33,1a2.94,2.94,0,0,0-1.49-.42c-.78,0-1.22.46-1.22,1s.44.86,1.38,1.22c1.26.49,1.91,1.11,1.91,2.19,0,1.28-1,2.18-2.71,2.18a4.13,4.13,0,0,1-2-.5Z"/><path d="M379.9,59.3v2.09h1.89v1H379.9v3.92c0,.9.26,1.41,1,1.41a3.22,3.22,0,0,0,.77-.09l.06,1a3.37,3.37,0,0,1-1.17.18,1.84,1.84,0,0,1-1.43-.56,2.71,2.71,0,0,1-.51-1.89v-4h-1.12v-1h1.12V59.65Z"/><path d="M383.28,63.65c0-.85,0-1.59-.06-2.26h1.15l.05,1.42h.06a2.18,2.18,0,0,1,2-1.59,1.38,1.38,0,0,1,.37.05v1.24a2,2,0,0,0-.45,0,1.85,1.85,0,0,0-1.77,1.7,3.49,3.49,0,0,0-.06.61v3.87h-1.3Z"/><path d="M394.26,66.67c0,.75,0,1.41.06,2h-1.17l-.08-1.19h0a2.71,2.71,0,0,1-2.4,1.35c-1.14,0-2.5-.63-2.5-3.18V61.39h1.32v4c0,1.38.42,2.31,1.62,2.31a1.92,1.92,0,0,0,1.74-1.2,2.11,2.11,0,0,0,.12-.68V61.39h1.32Z"/><path d="M401.62,68.38a4.83,4.83,0,0,1-2.08.42,3.46,3.46,0,0,1-3.62-3.71,3.69,3.69,0,0,1,3.9-3.85,4.42,4.42,0,0,1,1.83.37l-.3,1a3.17,3.17,0,0,0-1.53-.34,2.74,2.74,0,0,0,0,5.46,3.84,3.84,0,0,0,1.62-.36Z"/><path d="M405,59.3v2.09h1.89v1H405v3.92c0,.9.26,1.41,1,1.41a3.22,3.22,0,0,0,.77-.09l.06,1a3.37,3.37,0,0,1-1.17.18,1.84,1.84,0,0,1-1.43-.56,2.71,2.71,0,0,1-.51-1.89v-4h-1.12v-1h1.12V59.65Z"/><path d="M414.81,65a3.55,3.55,0,0,1-3.62,3.85,3.45,3.45,0,0,1-3.48-3.73,3.55,3.55,0,0,1,3.6-3.86A3.44,3.44,0,0,1,414.81,65Zm-5.76.07c0,1.59.91,2.79,2.2,2.79s2.21-1.18,2.21-2.82c0-1.23-.62-2.79-2.18-2.79S409.05,63.65,409.05,65Z"/><path d="M416.47,63.65c0-.85,0-1.59-.05-2.26h1.15l.05,1.42h.05a2.19,2.19,0,0,1,2-1.59,1.46,1.46,0,0,1,.38.05v1.24a2,2,0,0,0-.45,0,1.85,1.85,0,0,0-1.77,1.7,3.49,3.49,0,0,0-.06.61v3.87h-1.31Z"/><path d="M483.07,52.32a6.48,6.48,0,0,1-2.67.48,4.72,4.72,0,0,1-5-5.12,5,5,0,0,1,5.28-5.3,5.29,5.29,0,0,1,2.4.45l-.32,1.06a4.74,4.74,0,0,0-2-.42c-2.37,0-3.94,1.51-3.94,4.17,0,2.47,1.42,4.06,3.88,4.06a5.11,5.11,0,0,0,2.13-.42Z"/><path d="M491.07,49a3.55,3.55,0,0,1-3.62,3.85A3.45,3.45,0,0,1,484,49.08a3.55,3.55,0,0,1,3.6-3.86A3.44,3.44,0,0,1,491.07,49Zm-5.76.07c0,1.59.91,2.79,2.2,2.79s2.21-1.18,2.21-2.82c0-1.23-.62-2.79-2.18-2.79S485.31,47.65,485.31,49Z"/><path d="M492.73,47.76c0-.93,0-1.68-.06-2.37h1.19l.06,1.24h0a2.86,2.86,0,0,1,2.58-1.41c1.75,0,3.07,1.49,3.07,3.7,0,2.6-1.59,3.89-3.3,3.89a2.53,2.53,0,0,1-2.23-1.14h0v3.95h-1.31ZM494,49.69a2.87,2.87,0,0,0,.06.54,2,2,0,0,0,2,1.55c1.39,0,2.2-1.14,2.2-2.81,0-1.45-.76-2.7-2.16-2.7a2.1,2.1,0,0,0-2,1.64,1.91,1.91,0,0,0-.09.54Z"/><path d="M501.64,45.39l1.59,4.29c.17.48.35,1,.47,1.48h0c.13-.43.28-1,.46-1.51l1.44-4.26H507l-2,5.17c-.95,2.49-1.59,3.77-2.49,4.55a3.58,3.58,0,0,1-1.62.85l-.33-1.11a3.36,3.36,0,0,0,1.15-.64,4.09,4.09,0,0,0,1.11-1.47,1,1,0,0,0,.11-.32,1.13,1.13,0,0,0-.09-.34l-2.69-6.69Z"/><path d="M462.16,70.32a6.55,6.55,0,0,1-2.67.48,4.72,4.72,0,0,1-5-5.12,5,5,0,0,1,5.28-5.3,5.26,5.26,0,0,1,2.4.45l-.32,1.06a4.69,4.69,0,0,0-2-.42c-2.37,0-3.95,1.51-3.95,4.17,0,2.47,1.42,4.06,3.88,4.06a5.11,5.11,0,0,0,2.13-.42Z"/><path d="M470.15,67a3.55,3.55,0,0,1-3.61,3.85,3.45,3.45,0,0,1-3.48-3.73,3.55,3.55,0,0,1,3.6-3.86A3.44,3.44,0,0,1,470.15,67Zm-5.76.07c0,1.59.92,2.79,2.2,2.79s2.21-1.18,2.21-2.82c0-1.23-.61-2.79-2.18-2.79S464.39,65.65,464.39,67Z"/><path d="M471.82,65.35c0-.75,0-1.36-.06-2h1.17l.07,1.2h0a2.67,2.67,0,0,1,2.4-1.37c1,0,2.57.6,2.57,3.09v4.34h-1.32V66.46c0-1.17-.44-2.14-1.68-2.14a1.94,1.94,0,0,0-1.86,2v4.37h-1.32Z"/><path d="M480,69.3a3.51,3.51,0,0,0,1.74.52c1,0,1.41-.48,1.41-1.08s-.37-1-1.35-1.33c-1.3-.47-1.92-1.19-1.92-2.06a2.24,2.24,0,0,1,2.51-2.13,3.6,3.6,0,0,1,1.78.45l-.33,1a2.9,2.9,0,0,0-1.48-.42c-.78,0-1.22.46-1.22,1s.44.86,1.38,1.22c1.26.49,1.91,1.11,1.91,2.19,0,1.28-1,2.18-2.72,2.18a4.15,4.15,0,0,1-2-.5Z"/><path d="M487.67,61.3v2.09h1.89v1h-1.89v3.92c0,.9.25,1.41,1,1.41a3.13,3.13,0,0,0,.76-.09l.07,1a3.37,3.37,0,0,1-1.17.18,1.84,1.84,0,0,1-1.43-.56,2.71,2.71,0,0,1-.51-1.89v-4h-1.13v-1h1.13V61.65Z"/><path d="M491,65.65c0-.85,0-1.59-.05-2.26h1.15l.05,1.42h.06a2.18,2.18,0,0,1,2-1.59,1.4,1.4,0,0,1,.38.05v1.24a2,2,0,0,0-.45,0,1.85,1.85,0,0,0-1.77,1.7,3.49,3.49,0,0,0-.06.61v3.87H491Z"/><path d="M502,68.67c0,.75,0,1.41.05,2h-1.16l-.08-1.19h0a2.73,2.73,0,0,1-2.4,1.35c-1.14,0-2.5-.63-2.5-3.18V63.39h1.32v4c0,1.38.42,2.31,1.62,2.31a1.9,1.9,0,0,0,1.73-1.2,1.87,1.87,0,0,0,.13-.68V63.39H502Z"/><path d="M509.39,70.38a4.89,4.89,0,0,1-2.09.42,3.45,3.45,0,0,1-3.61-3.71,3.69,3.69,0,0,1,3.9-3.85,4.42,4.42,0,0,1,1.83.37l-.3,1a3.2,3.2,0,0,0-1.53-.34,2.74,2.74,0,0,0,0,5.46,3.9,3.9,0,0,0,1.63-.36Z"/><path d="M512.72,61.3v2.09h1.89v1h-1.89v3.92c0,.9.25,1.41,1,1.41a3.13,3.13,0,0,0,.76-.09l.07,1a3.37,3.37,0,0,1-1.17.18,1.83,1.83,0,0,1-1.43-.56,2.71,2.71,0,0,1-.51-1.89v-4H510.3v-1h1.13V61.65Z"/><path d="M522.58,67A3.55,3.55,0,0,1,519,70.81a3.45,3.45,0,0,1-3.48-3.73,3.55,3.55,0,0,1,3.6-3.86A3.44,3.44,0,0,1,522.58,67Zm-5.76.07c0,1.59.91,2.79,2.2,2.79s2.2-1.18,2.2-2.82c0-1.23-.61-2.79-2.17-2.79S516.82,65.65,516.82,67Z"/><path d="M524.24,65.65c0-.85,0-1.59-.06-2.26h1.15l0,1.42h.06a2.19,2.19,0,0,1,2-1.59,1.46,1.46,0,0,1,.38.05v1.24a2,2,0,0,0-.45,0,1.85,1.85,0,0,0-1.77,1.7,3.42,3.42,0,0,0-.07.61v3.87h-1.3Z"/><path d="M587.07,52.32a6.48,6.48,0,0,1-2.67.48,4.72,4.72,0,0,1-5-5.12,5,5,0,0,1,5.28-5.3,5.29,5.29,0,0,1,2.4.45l-.32,1.06a4.74,4.74,0,0,0-2-.42c-2.37,0-3.94,1.51-3.94,4.17,0,2.47,1.42,4.06,3.88,4.06a5.11,5.11,0,0,0,2.13-.42Z"/><path d="M595.07,49a3.55,3.55,0,0,1-3.62,3.85A3.45,3.45,0,0,1,588,49.08a3.55,3.55,0,0,1,3.6-3.86A3.44,3.44,0,0,1,595.07,49Zm-5.76.07c0,1.59.91,2.79,2.2,2.79s2.21-1.18,2.21-2.82c0-1.23-.62-2.79-2.18-2.79S589.31,47.65,589.31,49Z"/><path d="M596.73,47.76c0-.93,0-1.68-.06-2.37h1.19l.06,1.24h0a2.86,2.86,0,0,1,2.58-1.41c1.75,0,3.07,1.49,3.07,3.7,0,2.6-1.59,3.89-3.3,3.89a2.53,2.53,0,0,1-2.23-1.14h0v3.95h-1.31ZM598,49.69a2.87,2.87,0,0,0,.06.54,2,2,0,0,0,2,1.55c1.39,0,2.2-1.14,2.2-2.81,0-1.45-.76-2.7-2.16-2.7a2.1,2.1,0,0,0-2,1.64,1.91,1.91,0,0,0-.09.54Z"/><path d="M605.64,45.39l1.59,4.29c.17.48.35,1,.47,1.48h0c.13-.43.28-1,.46-1.51l1.44-4.26H611l-2,5.17c-.95,2.49-1.59,3.77-2.49,4.55a3.58,3.58,0,0,1-1.62.85l-.33-1.11a3.36,3.36,0,0,0,1.15-.64,4.09,4.09,0,0,0,1.11-1.47,1,1,0,0,0,.11-.32,1.13,1.13,0,0,0-.09-.34l-2.69-6.69Z"/><path d="M560.6,67.47l-1.05,3.18H558.2l3.43-10.11h1.58l3.45,10.11h-1.4l-1.08-3.18Zm3.31-1-1-2.91c-.22-.66-.37-1.26-.52-1.85h0c-.15.6-.32,1.22-.51,1.83l-1,2.93Z"/><path d="M567.83,69.3a3.51,3.51,0,0,0,1.74.52c1,0,1.41-.48,1.41-1.08s-.38-1-1.35-1.33c-1.31-.47-1.92-1.19-1.92-2.06a2.23,2.23,0,0,1,2.5-2.13,3.64,3.64,0,0,1,1.79.45l-.33,1a2.94,2.94,0,0,0-1.49-.42c-.78,0-1.21.46-1.21,1s.43.86,1.38,1.22c1.26.49,1.9,1.11,1.9,2.19,0,1.28-1,2.18-2.71,2.18a4.13,4.13,0,0,1-2-.5Z"/><path d="M573.77,69.3a3.51,3.51,0,0,0,1.74.52c1,0,1.41-.48,1.41-1.08s-.38-1-1.35-1.33c-1.31-.47-1.92-1.19-1.92-2.06a2.23,2.23,0,0,1,2.5-2.13,3.64,3.64,0,0,1,1.79.45l-.33,1a2.94,2.94,0,0,0-1.49-.42c-.78,0-1.21.46-1.21,1s.43.86,1.38,1.22c1.26.49,1.9,1.11,1.9,2.19,0,1.28-1,2.18-2.71,2.18a4.13,4.13,0,0,1-2-.5Z"/><path d="M581.36,61.35a.82.82,0,0,1-1.64,0,.81.81,0,0,1,.83-.83A.79.79,0,0,1,581.36,61.35Zm-1.47,9.3V63.39h1.32v7.26Z"/><path d="M589.65,63.39c0,.53-.06,1.11-.06,2V69.6c0,1.66-.33,2.68-1,3.31a3.86,3.86,0,0,1-2.64.87,4.72,4.72,0,0,1-2.42-.6l.33-1a4.09,4.09,0,0,0,2.13.57c1.35,0,2.34-.71,2.34-2.54V69.4h0A2.57,2.57,0,0,1,586,70.62a3.25,3.25,0,0,1-3.09-3.54c0-2.46,1.61-3.86,3.27-3.86a2.43,2.43,0,0,1,2.27,1.26h0l.06-1.09Zm-1.36,2.86a1.94,1.94,0,0,0-1.92-2c-1.26,0-2.16,1.06-2.16,2.74,0,1.43.72,2.61,2.14,2.61a1.93,1.93,0,0,0,1.83-1.35,2.13,2.13,0,0,0,.11-.7Z"/><path d="M591.69,65.35c0-.75,0-1.36-.06-2h1.17l.08,1.2h0a2.67,2.67,0,0,1,2.4-1.37c1,0,2.56.6,2.56,3.09v4.34h-1.32V66.46c0-1.17-.43-2.14-1.68-2.14a1.94,1.94,0,0,0-1.86,2v4.37h-1.32Z"/><path d="M600,65.35c0-.75,0-1.36-.06-2h1.15l.06,1.17h.05a2.5,2.5,0,0,1,2.28-1.34,2.13,2.13,0,0,1,2,1.46h0a3.08,3.08,0,0,1,.81-1,2.5,2.5,0,0,1,1.61-.51c1,0,2.38.63,2.38,3.16v4.27h-1.29V66.54c0-1.4-.51-2.24-1.57-2.24A1.71,1.71,0,0,0,606,65.5a2.18,2.18,0,0,0-.11.67v4.48h-1.29V66.3c0-1.16-.51-2-1.51-2a1.8,1.8,0,0,0-1.64,1.32,2,2,0,0,0-.1.65v4.38H600Z"/><path d="M613.26,67.26a2.33,2.33,0,0,0,2.49,2.52,4.73,4.73,0,0,0,2-.38l.23.95a5.91,5.91,0,0,1-2.42.45A3.37,3.37,0,0,1,612,67.14c0-2.19,1.29-3.92,3.41-3.92,2.37,0,3,2.09,3,3.42a4,4,0,0,1,0,.62Zm3.87-1a1.87,1.87,0,0,0-1.83-2.14,2.18,2.18,0,0,0-2,2.14Z"/><path d="M620,65.35c0-.75,0-1.36-.06-2h1.17l.08,1.2h0a2.67,2.67,0,0,1,2.4-1.37c1,0,2.56.6,2.56,3.09v4.34H624.9V66.46c0-1.17-.43-2.14-1.68-2.14a1.94,1.94,0,0,0-1.86,2v4.37H620Z"/><path d="M629.9,61.3v2.09h1.89v1H629.9v3.92c0,.9.25,1.41,1,1.41a3.13,3.13,0,0,0,.76-.09l.06,1a3.32,3.32,0,0,1-1.17.18,1.82,1.82,0,0,1-1.42-.56,2.66,2.66,0,0,1-.51-1.89v-4h-1.13v-1h1.13V61.65Z"/><path d="M691.23,48.21c-.07-1.41-.17-3.11-.15-4.37h0c-.35,1.19-.77,2.45-1.28,3.84L688,52.59h-1l-1.64-4.82c-.48-1.42-.89-2.73-1.17-3.93h0c0,1.26-.11,3-.19,4.47l-.27,4.34h-1.25l.71-10.11h1.66l1.73,4.89c.42,1.24.76,2.35,1,3.4h.05c.26-1,.61-2.13,1.07-3.4l1.79-4.89h1.67l.63,10.11h-1.27Z"/><path d="M701.38,49a3.55,3.55,0,0,1-3.61,3.85,3.45,3.45,0,0,1-3.48-3.73,3.55,3.55,0,0,1,3.6-3.86A3.44,3.44,0,0,1,701.38,49Zm-5.76.07c0,1.59.92,2.79,2.21,2.79S700,50.64,700,49c0-1.23-.61-2.79-2.17-2.79S695.62,47.65,695.62,49Z"/><path d="M703.46,45.39l1.42,4.08a18.76,18.76,0,0,1,.59,1.86h0c.17-.6.38-1.2.61-1.86l1.42-4.08h1.38l-2.85,7.26h-1.26l-2.76-7.26Z"/><path d="M710.75,49.26a2.33,2.33,0,0,0,2.48,2.52,4.81,4.81,0,0,0,2-.38l.22,1a5.91,5.91,0,0,1-2.42.45,3.37,3.37,0,0,1-3.56-3.66c0-2.19,1.29-3.92,3.4-3.92,2.37,0,3,2.09,3,3.42a4,4,0,0,1,0,.62Zm3.87-.95a1.88,1.88,0,0,0-1.83-2.14,2.19,2.19,0,0,0-2,2.14Z"/><path d="M670.16,70.32a6.55,6.55,0,0,1-2.67.48,4.72,4.72,0,0,1-5-5.12,5,5,0,0,1,5.28-5.3,5.26,5.26,0,0,1,2.4.45l-.32,1.06a4.69,4.69,0,0,0-2-.42c-2.37,0-4,1.51-4,4.17,0,2.47,1.42,4.06,3.88,4.06a5.11,5.11,0,0,0,2.13-.42Z"/><path d="M678.15,67a3.55,3.55,0,0,1-3.61,3.85,3.45,3.45,0,0,1-3.48-3.73,3.55,3.55,0,0,1,3.6-3.86A3.44,3.44,0,0,1,678.15,67Zm-5.76.07c0,1.59.92,2.79,2.2,2.79s2.21-1.18,2.21-2.82c0-1.23-.61-2.79-2.18-2.79S672.39,65.65,672.39,67Z"/><path d="M679.82,65.35c0-.75,0-1.36-.06-2h1.17l.07,1.2h0a2.67,2.67,0,0,1,2.4-1.37c1,0,2.57.6,2.57,3.09v4.34h-1.32V66.46c0-1.17-.44-2.14-1.68-2.14a1.94,1.94,0,0,0-1.86,2v4.37h-1.32Z"/><path d="M688,69.3a3.51,3.51,0,0,0,1.74.52c1,0,1.41-.48,1.41-1.08s-.37-1-1.35-1.33c-1.3-.47-1.92-1.19-1.92-2.06a2.24,2.24,0,0,1,2.51-2.13,3.6,3.6,0,0,1,1.78.45l-.33,1a2.9,2.9,0,0,0-1.48-.42c-.78,0-1.22.46-1.22,1s.44.86,1.38,1.22c1.26.49,1.91,1.11,1.91,2.19,0,1.28-1,2.18-2.72,2.18a4.15,4.15,0,0,1-2-.5Z"/><path d="M695.67,61.3v2.09h1.89v1h-1.89v3.92c0,.9.25,1.41,1,1.41a3.13,3.13,0,0,0,.76-.09l.07,1a3.37,3.37,0,0,1-1.17.18,1.84,1.84,0,0,1-1.43-.56,2.71,2.71,0,0,1-.51-1.89v-4h-1.13v-1h1.13V61.65Z"/><path d="M699,65.65c0-.85,0-1.59,0-2.26h1.15l.05,1.42h.06a2.18,2.18,0,0,1,2-1.59,1.4,1.4,0,0,1,.38.05v1.24a2,2,0,0,0-.45,0,1.85,1.85,0,0,0-1.77,1.7,3.49,3.49,0,0,0-.06.61v3.87H699Z"/><path d="M710,68.67c0,.75,0,1.41.05,2h-1.16l-.08-1.19h0a2.73,2.73,0,0,1-2.4,1.35c-1.14,0-2.5-.63-2.5-3.18V63.39h1.32v4c0,1.38.42,2.31,1.62,2.31a1.9,1.9,0,0,0,1.73-1.2,1.87,1.87,0,0,0,.13-.68V63.39H710Z"/><path d="M717.39,70.38a4.89,4.89,0,0,1-2.09.42,3.45,3.45,0,0,1-3.61-3.71,3.69,3.69,0,0,1,3.9-3.85,4.42,4.42,0,0,1,1.83.37l-.3,1a3.2,3.2,0,0,0-1.53-.34,2.74,2.74,0,0,0-.05,5.46,3.9,3.9,0,0,0,1.63-.36Z"/><path d="M720.72,61.3v2.09h1.89v1h-1.89v3.92c0,.9.25,1.41,1,1.41a3.13,3.13,0,0,0,.76-.09l.07,1a3.37,3.37,0,0,1-1.17.18,1.83,1.83,0,0,1-1.43-.56,2.71,2.71,0,0,1-.51-1.89v-4H718.3v-1h1.13V61.65Z"/><path d="M730.58,67A3.55,3.55,0,0,1,727,70.81a3.45,3.45,0,0,1-3.48-3.73,3.55,3.55,0,0,1,3.6-3.86A3.44,3.44,0,0,1,730.58,67Zm-5.76.07c0,1.59.91,2.79,2.2,2.79s2.2-1.18,2.2-2.82c0-1.23-.61-2.79-2.17-2.79S724.82,65.65,724.82,67Z"/><path d="M732.24,65.65c0-.85,0-1.59-.06-2.26h1.15l0,1.42h.06a2.19,2.19,0,0,1,2-1.59,1.46,1.46,0,0,1,.38.05v1.24a2,2,0,0,0-.45,0,1.85,1.85,0,0,0-1.77,1.7,3.42,3.42,0,0,0-.07.61v3.87h-1.3Z"/><rect class="a" x="231" y="74.83" width="104" height="57.83"/><rect class="a" x="335" y="74.83" width="104" height="57.83"/><rect class="a" x="439" y="74.83" width="104" height="57.83"/><rect class="a" x="543" y="74.83" width="104" height="57.83"/><rect class="a" x="647" y="74.83" width="104" height="57.83"/><rect class="a" x="231" y="132.67" width="104" height="57.83"/><rect class="a" x="335" y="132.67" width="104" height="57.83"/><rect class="a" x="439" y="132.67" width="104" height="57.83"/><rect class="a" x="543" y="132.67" width="104" height="57.83"/><rect class="a" x="647" y="132.67" width="104" height="57.83"/><rect class="a" x="231" y="190.5" width="104" height="57.83"/><rect class="a" x="335" y="190.5" width="104" height="57.83"/><rect class="a" x="439" y="190.5" width="104" height="57.83"/><rect class="a" x="543" y="190.5" width="104" height="57.83"/><rect class="a" x="647" y="190.5" width="104" height="57.83"/><rect class="a" x="231" y="248.33" width="104" height="57.83"/><rect class="a" x="335" y="248.33" width="104" height="57.83"/><rect class="b" x="439" y="248.33" width="208" height="115.67"/><rect class="a" x="647" y="248.33" width="104" height="57.83"/><rect class="a" x="231" y="306.17" width="104" height="57.83"/><rect class="a" x="335" y="306.17" width="104" height="57.83"/><rect class="a" x="647" y="306.17" width="104" height="57.83"/><path d="M81.12,329.42c-.1-1.89-.22-4.15-.2-5.83h-.06c-.46,1.58-1,3.26-1.7,5.12l-2.38,6.55H75.46l-2.18-6.43c-.64-1.9-1.18-3.64-1.56-5.24h0c0,1.68-.14,3.94-.26,6l-.36,5.79H69.4l.94-13.49h2.22l2.3,6.52c.56,1.67,1,3.14,1.36,4.55h.06c.34-1.37.82-2.84,1.42-4.55l2.4-6.52h2.22l.84,13.49h-1.7Z"/><path d="M94.66,330.42c0,3.58-2.48,5.14-4.82,5.14-2.62,0-4.64-1.92-4.64-5,0-3.25,2.12-5.15,4.8-5.15S94.66,327.45,94.66,330.42Zm-7.68.09c0,2.13,1.22,3.73,2.94,3.73s2.94-1.58,2.94-3.77c0-1.64-.82-3.72-2.9-3.72S87,328.67,87,330.51Z"/><path d="M97.42,325.65l1.9,5.44a25.89,25.89,0,0,1,.78,2.49h.06c.22-.8.5-1.6.82-2.49l1.88-5.44h1.84l-3.8,9.69H99.22l-3.68-9.69Z"/><path d="M107.14,330.82a3.1,3.1,0,0,0,3.32,3.36,6.36,6.36,0,0,0,2.68-.5l.3,1.26a7.84,7.84,0,0,1-3.22.6c-3,0-4.76-2-4.76-4.88s1.72-5.23,4.54-5.23c3.16,0,4,2.78,4,4.57a7,7,0,0,1-.06.82Zm5.16-1.27c0-1.12-.46-2.86-2.44-2.86-1.78,0-2.56,1.64-2.7,2.86Z"/><path d="M122.66,331.09l-1.4,4.25h-1.8L124,321.85h2.1l4.6,13.49h-1.86l-1.44-4.25Zm4.42-1.36-1.32-3.88c-.3-.88-.5-1.68-.7-2.46h0c-.2.8-.42,1.62-.68,2.44l-1.32,3.9Z"/><path d="M132.3,333.54a4.61,4.61,0,0,0,2.32.7c1.28,0,1.88-.64,1.88-1.45s-.5-1.29-1.8-1.78c-1.74-.62-2.56-1.58-2.56-2.74,0-1.56,1.26-2.84,3.34-2.84a4.83,4.83,0,0,1,2.38.6l-.44,1.28a3.77,3.77,0,0,0-2-.56c-1,0-1.62.6-1.62,1.32s.58,1.16,1.84,1.64c1.68.64,2.54,1.49,2.54,2.93,0,1.7-1.32,2.9-3.62,2.9a5.52,5.52,0,0,1-2.72-.66Z"/><path d="M140.22,333.54a4.61,4.61,0,0,0,2.32.7c1.28,0,1.88-.64,1.88-1.45s-.5-1.29-1.8-1.78c-1.74-.62-2.56-1.58-2.56-2.74,0-1.56,1.26-2.84,3.34-2.84a4.83,4.83,0,0,1,2.38.6l-.44,1.28a3.77,3.77,0,0,0-2-.56c-1,0-1.62.6-1.62,1.32s.58,1.16,1.84,1.64c1.68.64,2.54,1.49,2.54,2.93,0,1.7-1.32,2.9-3.62,2.9a5.52,5.52,0,0,1-2.72-.66Z"/><path d="M150.34,322.93a1.09,1.09,0,0,1-2.18,0,1.07,1.07,0,0,1,1.1-1.1A1,1,0,0,1,150.34,322.93Zm-2,12.41v-9.69h1.76v9.69Z"/><path d="M161.4,325.65c0,.7-.08,1.48-.08,2.66v5.63c0,2.22-.44,3.58-1.38,4.42a5.13,5.13,0,0,1-3.52,1.16,6.25,6.25,0,0,1-3.22-.8l.44-1.34a5.46,5.46,0,0,0,2.84.76c1.8,0,3.12-.94,3.12-3.38v-1.08h0a3.46,3.46,0,0,1-3.08,1.62c-2.4,0-4.12-2-4.12-4.72,0-3.29,2.14-5.15,4.36-5.15a3.22,3.22,0,0,1,3,1.68h0l.08-1.46Zm-1.82,3.82a2.58,2.58,0,0,0-2.56-2.66c-1.68,0-2.88,1.42-2.88,3.66,0,1.91,1,3.49,2.86,3.49a2.57,2.57,0,0,0,2.44-1.8,3.13,3.13,0,0,0,.14-1Z"/><path d="M164.12,328.27c0-1,0-1.82-.08-2.62h1.56l.1,1.6h0a3.56,3.56,0,0,1,3.2-1.82c1.34,0,3.42.8,3.42,4.12v5.79H170.6v-5.59c0-1.56-.58-2.86-2.24-2.86a2.5,2.5,0,0,0-2.36,1.8,2.57,2.57,0,0,0-.12.82v5.83h-1.76Z"/><path d="M175.21,328.27c0-1,0-1.82-.08-2.62h1.55l.08,1.56h.06a3.34,3.34,0,0,1,3-1.78,2.86,2.86,0,0,1,2.74,1.94h0a4,4,0,0,1,1.08-1.26,3.3,3.3,0,0,1,2.14-.68c1.28,0,3.18.84,3.18,4.2v5.71h-1.72v-5.49c0-1.86-.68-3-2.1-3a2.28,2.28,0,0,0-2.08,1.6,2.9,2.9,0,0,0-.14.88v6h-1.72v-5.8c0-1.55-.68-2.67-2-2.67a2.4,2.4,0,0,0-2.18,1.76,2.44,2.44,0,0,0-.14.87v5.84h-1.73Z"/><path d="M192.88,330.82a3.1,3.1,0,0,0,3.32,3.36,6.36,6.36,0,0,0,2.68-.5l.3,1.26a7.84,7.84,0,0,1-3.22.6c-3,0-4.76-2-4.76-4.88s1.72-5.23,4.54-5.23c3.16,0,4,2.78,4,4.57a7,7,0,0,1-.06.82Zm5.16-1.27c0-1.12-.46-2.86-2.44-2.86-1.78,0-2.56,1.64-2.7,2.86Z"/><path d="M201.92,328.27c0-1,0-1.82-.09-2.62h1.57l.1,1.6h0a3.56,3.56,0,0,1,3.2-1.82c1.34,0,3.42.8,3.42,4.12v5.79H208.4v-5.59c0-1.56-.58-2.86-2.24-2.86a2.5,2.5,0,0,0-2.36,1.8,2.57,2.57,0,0,0-.12.82v5.83h-1.76Z"/><path d="M215.06,322.87v2.78h2.52V327h-2.52v5.22c0,1.21.34,1.89,1.32,1.89a3.92,3.92,0,0,0,1-.12l.08,1.32a4.31,4.31,0,0,1-1.56.24,2.44,2.44,0,0,1-1.9-.74,3.54,3.54,0,0,1-.69-2.52V327h-1.5v-1.34h1.5v-2.32Z"/><path d="M70.45,343.23H75.9v1.09H71.76v3.36h3.82v1.08H71.76v4.58H70.45Z"/><path d="M83.82,349.65a3.55,3.55,0,0,1-3.62,3.85,3.45,3.45,0,0,1-3.48-3.73,3.55,3.55,0,0,1,3.6-3.86A3.44,3.44,0,0,1,83.82,349.65Zm-5.76.07c0,1.59.91,2.79,2.2,2.79s2.2-1.18,2.2-2.82c0-1.23-.61-2.79-2.17-2.79S78.06,348.34,78.06,349.72Z"/><path d="M92.05,349.65a3.55,3.55,0,0,1-3.61,3.85A3.45,3.45,0,0,1,85,349.77a3.55,3.55,0,0,1,3.6-3.86A3.44,3.44,0,0,1,92.05,349.65Zm-5.76.07c0,1.59.92,2.79,2.21,2.79s2.2-1.18,2.2-2.82c0-1.23-.61-2.79-2.17-2.79S86.29,348.34,86.29,349.72Z"/><path d="M100.09,353.34c-.29-.29-.55-.57-1-1a4.13,4.13,0,0,1-3,1.15,2.86,2.86,0,0,1-3.11-2.83,3.33,3.33,0,0,1,2-3v0a3.47,3.47,0,0,1-.85-2.12,2.46,2.46,0,0,1,2.57-2.49A2.1,2.1,0,0,1,99,345.21c0,1.06-.61,1.9-2.22,2.7v0c.86,1,1.82,2.1,2.46,2.82a7.38,7.38,0,0,0,1-2.95h1.2a7.65,7.65,0,0,1-1.46,3.73l1.67,1.79ZM98.5,351.6c-.6-.66-1.72-1.89-2.85-3.18a2.48,2.48,0,0,0-1.31,2.05,2,2,0,0,0,2.08,2A2.83,2.83,0,0,0,98.5,351.6Zm-3.08-6.17a2.83,2.83,0,0,0,.77,1.82c1-.59,1.68-1.13,1.68-2A1.19,1.19,0,0,0,96.7,344,1.32,1.32,0,0,0,95.42,345.43Z"/><path d="M112.54,349.65a3.55,3.55,0,0,1-3.62,3.85,3.45,3.45,0,0,1-3.47-3.73,3.55,3.55,0,0,1,3.59-3.86A3.44,3.44,0,0,1,112.54,349.65Zm-5.76.07c0,1.59.92,2.79,2.2,2.79s2.21-1.18,2.21-2.82c0-1.23-.61-2.79-2.18-2.79S106.78,348.34,106.78,349.72Z"/><path d="M114.21,348.45c0-.93,0-1.68-.06-2.37h1.18l.06,1.24h0a2.87,2.87,0,0,1,2.58-1.41c1.75,0,3.08,1.49,3.08,3.69,0,2.61-1.59,3.9-3.3,3.9a2.56,2.56,0,0,1-2.24-1.14h0v3.95h-1.3Zm1.3,1.93a2.87,2.87,0,0,0,.06.54,2,2,0,0,0,2,1.55c1.4,0,2.2-1.14,2.2-2.81,0-1.45-.76-2.7-2.16-2.7a2.12,2.12,0,0,0-2,1.64,2.34,2.34,0,0,0-.09.54Z"/><path d="M123.48,350a2.33,2.33,0,0,0,2.48,2.52,4.81,4.81,0,0,0,2-.38l.22,1a5.85,5.85,0,0,1-2.41.45,3.37,3.37,0,0,1-3.57-3.66c0-2.19,1.29-3.92,3.4-3.92,2.37,0,3,2.09,3,3.42,0,.27,0,.48,0,.62Zm3.87-.95a1.88,1.88,0,0,0-1.83-2.14,2.19,2.19,0,0,0-2,2.14Z"/><path d="M130.25,348.34c0-.85,0-1.59-.05-2.26h1.15l.05,1.42h.06a2.18,2.18,0,0,1,2-1.59,1.4,1.4,0,0,1,.38,0v1.24a2,2,0,0,0-.45,0,1.85,1.85,0,0,0-1.77,1.69,3.72,3.72,0,0,0-.06.62v3.87h-1.31Z"/><path d="M139.11,353.34l-.11-.92h0a2.72,2.72,0,0,1-2.22,1.08,2.06,2.06,0,0,1-2.22-2.08c0-1.76,1.56-2.72,4.36-2.7v-.15a1.5,1.5,0,0,0-1.65-1.68,3.6,3.6,0,0,0-1.89.54l-.3-.87a4.5,4.5,0,0,1,2.38-.65c2.22,0,2.76,1.52,2.76,3v2.72a10.26,10.26,0,0,0,.12,1.74Zm-.2-3.71c-1.44,0-3.08.23-3.08,1.64a1.18,1.18,0,0,0,1.25,1.26,1.79,1.79,0,0,0,1.75-1.22,1.2,1.2,0,0,0,.08-.42Z"/><path d="M143.84,344v2.09h1.9v1h-1.9V351c0,.9.26,1.41,1,1.41a3.22,3.22,0,0,0,.77-.09l.06,1a3.32,3.32,0,0,1-1.17.18,1.82,1.82,0,0,1-1.42-.56,2.66,2.66,0,0,1-.52-1.89v-4h-1.12v-1h1.12v-1.74Z"/><path d="M153.7,349.65a3.55,3.55,0,0,1-3.62,3.85,3.45,3.45,0,0,1-3.47-3.73,3.55,3.55,0,0,1,3.6-3.86A3.44,3.44,0,0,1,153.7,349.65Zm-5.76.07c0,1.59.92,2.79,2.2,2.79s2.21-1.18,2.21-2.82c0-1.23-.61-2.79-2.18-2.79S147.94,348.34,147.94,349.72Z"/><path d="M155.36,348.34c0-.85,0-1.59-.06-2.26h1.16l0,1.42h.06a2.19,2.19,0,0,1,2-1.59,1.46,1.46,0,0,1,.38,0v1.24a2,2,0,0,0-.45,0,1.85,1.85,0,0,0-1.77,1.69,3.72,3.72,0,0,0-.06.62v3.87h-1.31Z"/><path d="M159.77,348.28v-.9h7.74v.9Zm0,2.94v-.9h7.74v.9Z"/><path d="M172.07,342.93a9.92,9.92,0,0,0-1.89,6.13,10.14,10.14,0,0,0,1.89,6.09h-1a9.64,9.64,0,0,1-2-6.09,9.89,9.89,0,0,1,2-6.13Z"/><path d="M173.51,343.23H179v1.09h-4.14v3.36h3.82v1.08h-3.82v4.58h-1.31Z"/><path d="M186.88,349.65a3.55,3.55,0,0,1-3.62,3.85,3.45,3.45,0,0,1-3.47-3.73,3.55,3.55,0,0,1,3.59-3.86A3.44,3.44,0,0,1,186.88,349.65Zm-5.76.07c0,1.59.92,2.79,2.2,2.79s2.21-1.18,2.21-2.82c0-1.23-.61-2.79-2.18-2.79S181.12,348.34,181.12,349.72Z"/><path d="M195.12,349.65a3.55,3.55,0,0,1-3.62,3.85,3.45,3.45,0,0,1-3.48-3.73,3.55,3.55,0,0,1,3.6-3.86A3.44,3.44,0,0,1,195.12,349.65Zm-5.76.07c0,1.59.91,2.79,2.2,2.79s2.2-1.18,2.2-2.82c0-1.23-.61-2.79-2.17-2.79S189.36,348.34,189.36,349.72Z"/><path d="M203.15,353.34l-.94-1a4.15,4.15,0,0,1-3,1.15,2.86,2.86,0,0,1-3.1-2.83,3.32,3.32,0,0,1,2-3v0a3.46,3.46,0,0,1-.84-2.12,2.45,2.45,0,0,1,2.56-2.49,2.11,2.11,0,0,1,2.24,2.15c0,1.06-.62,1.9-2.22,2.7v0c.85,1,1.81,2.1,2.46,2.82a7.39,7.39,0,0,0,1-2.95h1.2a7.65,7.65,0,0,1-1.45,3.73c.54.57,1.06,1.14,1.66,1.79Zm-1.59-1.74c-.6-.66-1.72-1.89-2.85-3.18a2.47,2.47,0,0,0-1.3,2.05,2,2,0,0,0,2.07,2A2.83,2.83,0,0,0,201.56,351.6Zm-3.07-6.17a2.87,2.87,0,0,0,.76,1.82c1-.59,1.68-1.13,1.68-2a1.19,1.19,0,0,0-1.17-1.31A1.31,1.31,0,0,0,198.49,345.43Z"/><path d="M212.23,353.34c-.29-.29-.56-.57-.95-1a4.13,4.13,0,0,1-2.95,1.15,2.86,2.86,0,0,1-3.11-2.83,3.33,3.33,0,0,1,2-3v0a3.47,3.47,0,0,1-.85-2.12,2.46,2.46,0,0,1,2.57-2.49,2.1,2.1,0,0,1,2.23,2.15c0,1.06-.61,1.9-2.22,2.7v0c.86,1,1.82,2.1,2.46,2.82a7.38,7.38,0,0,0,1-2.95h1.2a7.65,7.65,0,0,1-1.46,3.73l1.67,1.79Zm-1.59-1.74c-.6-.66-1.72-1.89-2.85-3.18a2.48,2.48,0,0,0-1.31,2.05,2,2,0,0,0,2.07,2A2.85,2.85,0,0,0,210.64,351.6Zm-3.08-6.17a2.83,2.83,0,0,0,.77,1.82c1-.59,1.68-1.13,1.68-2a1.19,1.19,0,0,0-1.17-1.31A1.32,1.32,0,0,0,207.56,345.43Z"/><path d="M214.13,355.15A10.09,10.09,0,0,0,216,349a9.92,9.92,0,0,0-1.89-6.09h1a9.55,9.55,0,0,1,2,6.1,9.73,9.73,0,0,1-2,6.12Z"/><path d="M82.46,271.42c-.1-1.89-.22-4.15-.2-5.83H82.2c-.46,1.58-1,3.26-1.7,5.12l-2.38,6.55H76.8l-2.18-6.43c-.64-1.9-1.18-3.64-1.56-5.24h0c0,1.68-.14,3.94-.26,6l-.36,5.79H70.74l.94-13.49H73.9l2.3,6.52c.56,1.67,1,3.14,1.36,4.55h.06c.34-1.37.82-2.84,1.42-4.55l2.4-6.52h2.22l.84,13.49H82.8Z"/><path d="M96,272.42c0,3.58-2.48,5.14-4.82,5.14-2.62,0-4.64-1.92-4.64-5,0-3.25,2.12-5.15,4.8-5.15S96,269.45,96,272.42Zm-7.68.09c0,2.13,1.22,3.73,2.94,3.73s2.94-1.58,2.94-3.77c0-1.64-.82-3.72-2.9-3.72S88.32,270.67,88.32,272.51Z"/><path d="M98.76,267.65l1.9,5.44a25.89,25.89,0,0,1,.78,2.49h.06c.22-.8.5-1.6.82-2.49l1.88-5.44H106l-3.8,9.69h-1.68l-3.68-9.69Z"/><path d="M108.48,272.82a3.1,3.1,0,0,0,3.32,3.36,6.36,6.36,0,0,0,2.68-.5l.3,1.26a7.84,7.84,0,0,1-3.22.6c-3,0-4.76-2-4.76-4.88s1.72-5.23,4.54-5.23c3.16,0,4,2.78,4,4.57a7,7,0,0,1-.06.82Zm5.16-1.27c0-1.12-.46-2.86-2.44-2.86-1.78,0-2.56,1.64-2.7,2.86Z"/><path d="M131.24,276.9a8.64,8.64,0,0,1-3.56.64c-3.8,0-6.66-2.4-6.66-6.83a6.71,6.71,0,0,1,7-7.08,7.23,7.23,0,0,1,3.2.6l-.42,1.42a6.34,6.34,0,0,0-2.72-.56c-3.16,0-5.26,2-5.26,5.56,0,3.31,1.9,5.43,5.18,5.43a7,7,0,0,0,2.84-.56Z"/><path d="M141.9,272.42c0,3.58-2.48,5.14-4.82,5.14-2.62,0-4.64-1.92-4.64-5,0-3.25,2.12-5.15,4.8-5.15S141.9,269.45,141.9,272.42Zm-7.68.09c0,2.13,1.22,3.73,2.94,3.73s2.94-1.58,2.94-3.77c0-1.64-.82-3.72-2.9-3.72S134.22,270.67,134.22,272.51Z"/><path d="M144.12,270.27c0-1,0-1.82-.08-2.62h1.56l.1,1.6h0a3.56,3.56,0,0,1,3.2-1.82c1.34,0,3.42.8,3.42,4.12v5.79H150.6v-5.59c0-1.56-.58-2.86-2.24-2.86a2.5,2.5,0,0,0-2.36,1.8,2.57,2.57,0,0,0-.12.82v5.83h-1.76Z"/><path d="M155,275.54a4.61,4.61,0,0,0,2.32.7c1.28,0,1.88-.64,1.88-1.45s-.5-1.29-1.8-1.78c-1.74-.62-2.56-1.58-2.56-2.74,0-1.56,1.26-2.84,3.34-2.84a4.83,4.83,0,0,1,2.38.6l-.44,1.28a3.77,3.77,0,0,0-2-.56c-1,0-1.62.6-1.62,1.32s.58,1.16,1.84,1.64c1.68.64,2.54,1.49,2.54,2.93,0,1.7-1.32,2.9-3.62,2.9a5.49,5.49,0,0,1-2.72-.66Z"/><path d="M165.26,264.87v2.78h2.52V269h-2.52v5.22c0,1.21.34,1.89,1.32,1.89a3.92,3.92,0,0,0,1-.12l.08,1.32a4.31,4.31,0,0,1-1.56.24,2.44,2.44,0,0,1-1.9-.74,3.54,3.54,0,0,1-.68-2.52V269H162v-1.34h1.5v-2.32Z"/><path d="M169.75,270.67c0-1.14,0-2.12-.08-3h1.55l.06,1.9h.08a2.9,2.9,0,0,1,2.68-2.12,1.9,1.9,0,0,1,.5.06v1.66a2.64,2.64,0,0,0-.6-.06,2.47,2.47,0,0,0-2.36,2.26,5.07,5.07,0,0,0-.08.82v5.17h-1.75Z"/><path d="M184.4,274.7c0,1,0,1.88.08,2.64h-1.56l-.1-1.58h0a3.64,3.64,0,0,1-3.2,1.8c-1.52,0-3.34-.84-3.34-4.24v-5.67H178V273c0,1.85.56,3.09,2.16,3.09a2.54,2.54,0,0,0,2.32-1.6,2.59,2.59,0,0,0,.16-.91v-5.94h1.76Z"/><path d="M194.22,277a6.48,6.48,0,0,1-2.78.56,4.6,4.6,0,0,1-4.83-5,4.93,4.93,0,0,1,5.21-5.14,5.88,5.88,0,0,1,2.44.5l-.4,1.36a4.08,4.08,0,0,0-2-.46,3.65,3.65,0,0,0-.06,7.29,5,5,0,0,0,2.16-.48Z"/><path d="M198.66,264.87v2.78h2.52V269h-2.52v5.22c0,1.21.34,1.89,1.32,1.89a3.92,3.92,0,0,0,1-.12l.08,1.32a4.31,4.31,0,0,1-1.56.24,2.44,2.44,0,0,1-1.9-.74,3.54,3.54,0,0,1-.69-2.52V269h-1.5v-1.34h1.5v-2.32Z"/><path d="M211.8,272.42c0,3.58-2.48,5.14-4.82,5.14-2.63,0-4.65-1.92-4.65-5,0-3.25,2.13-5.15,4.81-5.15S211.8,269.45,211.8,272.42Zm-7.68.09c0,2.13,1.21,3.73,2.94,3.73s2.94-1.58,2.94-3.77c0-1.64-.82-3.72-2.9-3.72S204.12,270.67,204.12,272.51Z"/><path d="M214,270.67c0-1.14,0-2.12-.08-3h1.55l.06,1.9h.08a2.9,2.9,0,0,1,2.68-2.12,1.9,1.9,0,0,1,.5.06v1.66a2.64,2.64,0,0,0-.6-.06,2.49,2.49,0,0,0-2.37,2.26,5.12,5.12,0,0,0-.07.82v5.17H214Z"/><path d="M146.94,285.23h5.45v1.09h-4.14v3.36h3.82v1.08h-3.82v4.58h-1.31Z"/><path d="M160.31,291.65a3.55,3.55,0,0,1-3.62,3.85,3.45,3.45,0,0,1-3.48-3.73,3.55,3.55,0,0,1,3.6-3.86A3.44,3.44,0,0,1,160.31,291.65Zm-5.76.07c0,1.59.91,2.79,2.2,2.79s2.21-1.18,2.21-2.82c0-1.23-.62-2.79-2.18-2.79S154.55,290.34,154.55,291.72Z"/><path d="M168.54,291.65a3.55,3.55,0,0,1-3.61,3.85,3.45,3.45,0,0,1-3.48-3.73,3.55,3.55,0,0,1,3.6-3.86A3.44,3.44,0,0,1,168.54,291.65Zm-5.75.07c0,1.59.91,2.79,2.2,2.79s2.2-1.18,2.2-2.82c0-1.23-.61-2.79-2.17-2.79S162.79,290.34,162.79,291.72Z"/><path d="M173.07,284.93a9.92,9.92,0,0,0-1.89,6.13,10.14,10.14,0,0,0,1.89,6.09h-1a9.64,9.64,0,0,1-2-6.09,9.89,9.89,0,0,1,2-6.13Z"/><path d="M174.51,285.23H180v1.09h-4.14v3.36h3.82v1.08h-3.82v4.58h-1.31Z"/><path d="M187.88,291.65a3.55,3.55,0,0,1-3.62,3.85,3.45,3.45,0,0,1-3.47-3.73,3.55,3.55,0,0,1,3.59-3.86A3.44,3.44,0,0,1,187.88,291.65Zm-5.76.07c0,1.59.92,2.79,2.2,2.79s2.21-1.18,2.21-2.82c0-1.23-.61-2.79-2.18-2.79S182.12,290.34,182.12,291.72Z"/><path d="M196.12,291.65a3.55,3.55,0,0,1-3.62,3.85,3.45,3.45,0,0,1-3.48-3.73,3.55,3.55,0,0,1,3.6-3.86A3.44,3.44,0,0,1,196.12,291.65Zm-5.76.07c0,1.59.91,2.79,2.2,2.79s2.2-1.18,2.2-2.82c0-1.23-.61-2.79-2.17-2.79S190.36,290.34,190.36,291.72Z"/><path d="M204.15,295.34l-.94-1a4.15,4.15,0,0,1-3,1.15,2.86,2.86,0,0,1-3.1-2.83,3.32,3.32,0,0,1,2-3v0a3.46,3.46,0,0,1-.84-2.12,2.45,2.45,0,0,1,2.56-2.49,2.11,2.11,0,0,1,2.24,2.15c0,1.06-.62,1.9-2.22,2.7v0c.85,1,1.81,2.1,2.46,2.82a7.39,7.39,0,0,0,1-2.95h1.2a7.65,7.65,0,0,1-1.45,3.73c.54.57,1.06,1.14,1.66,1.79Zm-1.59-1.74c-.6-.66-1.72-1.89-2.85-3.18a2.47,2.47,0,0,0-1.3,2.05,2,2,0,0,0,2.07,2A2.83,2.83,0,0,0,202.56,293.6Zm-3.07-6.17a2.87,2.87,0,0,0,.76,1.82c1-.59,1.68-1.13,1.68-2a1.19,1.19,0,0,0-1.17-1.31A1.31,1.31,0,0,0,199.49,287.43Z"/><path d="M213.23,295.34c-.29-.29-.56-.57-.95-1a4.13,4.13,0,0,1-2.95,1.15,2.86,2.86,0,0,1-3.11-2.83,3.33,3.33,0,0,1,2-3v0a3.47,3.47,0,0,1-.85-2.12,2.46,2.46,0,0,1,2.57-2.49,2.1,2.1,0,0,1,2.23,2.15c0,1.06-.61,1.9-2.22,2.7v0c.86,1,1.82,2.1,2.46,2.82a7.38,7.38,0,0,0,1-2.95h1.2a7.65,7.65,0,0,1-1.46,3.73l1.67,1.79Zm-1.59-1.74c-.6-.66-1.72-1.89-2.85-3.18a2.48,2.48,0,0,0-1.31,2.05,2,2,0,0,0,2.07,2A2.85,2.85,0,0,0,211.64,293.6Zm-3.08-6.17a2.83,2.83,0,0,0,.77,1.82c1-.59,1.68-1.13,1.68-2a1.19,1.19,0,0,0-1.17-1.31A1.32,1.32,0,0,0,208.56,287.43Z"/><path d="M215.13,297.15A10.09,10.09,0,0,0,217,291a9.92,9.92,0,0,0-1.89-6.09h1a9.55,9.55,0,0,1,2,6.1,9.73,9.73,0,0,1-2,6.12Z"/><path d="M83.64,218.9a8.64,8.64,0,0,1-3.56.64c-3.8,0-6.66-2.4-6.66-6.83a6.71,6.71,0,0,1,7-7.08,7.23,7.23,0,0,1,3.2.6l-.42,1.42a6.34,6.34,0,0,0-2.72-.56c-3.16,0-5.26,2-5.26,5.56,0,3.31,1.9,5.43,5.18,5.43a7,7,0,0,0,2.84-.56Z"/><path d="M94.3,214.42c0,3.58-2.48,5.14-4.82,5.14-2.62,0-4.64-1.92-4.64-5,0-3.25,2.12-5.15,4.8-5.15S94.3,211.45,94.3,214.42Zm-7.68.09c0,2.13,1.22,3.73,2.94,3.73s2.94-1.58,2.94-3.77c0-1.64-.82-3.72-2.9-3.72S86.62,212.67,86.62,214.51Z"/><path d="M96.52,212.81c0-1.24,0-2.24-.08-3.16H98l.08,1.66h0a3.81,3.81,0,0,1,3.44-1.88c2.34,0,4.1,2,4.1,4.92,0,3.49-2.12,5.21-4.4,5.21a3.39,3.39,0,0,1-3-1.52h0v5.26H96.52Zm1.74,2.59a4,4,0,0,0,.08.72,2.72,2.72,0,0,0,2.64,2.06c1.86,0,2.94-1.52,2.94-3.75,0-1.94-1-3.6-2.88-3.6A2.81,2.81,0,0,0,98.38,213a2.93,2.93,0,0,0-.12.72Z"/><path d="M108.4,209.65l2.12,5.73c.22.64.46,1.4.62,2h0c.18-.58.38-1.32.62-2l1.92-5.68h1.86l-2.64,6.91c-1.26,3.32-2.12,5-3.32,6.06a4.77,4.77,0,0,1-2.16,1.14l-.44-1.48a4.66,4.66,0,0,0,1.54-.86,5.34,5.34,0,0,0,1.48-2,1.26,1.26,0,0,0,.14-.42,1.53,1.53,0,0,0-.12-.46l-3.58-8.93Z"/><path d="M123.66,215.09l-1.4,4.25h-1.8L125,205.85h2.1l4.6,13.49h-1.86l-1.44-4.25Zm4.42-1.36-1.32-3.88c-.3-.88-.5-1.68-.7-2.46h0c-.2.8-.42,1.62-.68,2.44l-1.32,3.9Z"/><path d="M133.3,217.54a4.61,4.61,0,0,0,2.32.7c1.28,0,1.88-.64,1.88-1.45s-.5-1.29-1.8-1.78c-1.74-.62-2.56-1.58-2.56-2.74,0-1.56,1.26-2.84,3.34-2.84a4.83,4.83,0,0,1,2.38.6l-.44,1.28a3.77,3.77,0,0,0-2-.56c-1,0-1.62.6-1.62,1.32s.58,1.16,1.84,1.64c1.68.64,2.54,1.49,2.54,2.93,0,1.7-1.32,2.9-3.62,2.9a5.52,5.52,0,0,1-2.72-.66Z"/><path d="M141.22,217.54a4.61,4.61,0,0,0,2.32.7c1.28,0,1.88-.64,1.88-1.45s-.5-1.29-1.8-1.78c-1.74-.62-2.56-1.58-2.56-2.74,0-1.56,1.26-2.84,3.34-2.84a4.83,4.83,0,0,1,2.38.6l-.44,1.28a3.77,3.77,0,0,0-2-.56c-1,0-1.62.6-1.62,1.32s.58,1.16,1.84,1.64c1.68.64,2.54,1.49,2.54,2.93,0,1.7-1.32,2.9-3.62,2.9a5.52,5.52,0,0,1-2.72-.66Z"/><path d="M151.34,206.93a1.09,1.09,0,0,1-2.18,0,1.07,1.07,0,0,1,1.1-1.1A1,1,0,0,1,151.34,206.93Zm-2,12.41v-9.69h1.76v9.69Z"/><path d="M162.4,209.65c0,.7-.08,1.48-.08,2.66v5.63c0,2.22-.44,3.58-1.38,4.42a5.13,5.13,0,0,1-3.52,1.16,6.25,6.25,0,0,1-3.22-.8l.44-1.34a5.46,5.46,0,0,0,2.84.76c1.8,0,3.12-.94,3.12-3.38v-1.08h0a3.46,3.46,0,0,1-3.08,1.62c-2.4,0-4.12-2-4.12-4.72,0-3.29,2.14-5.15,4.36-5.15a3.22,3.22,0,0,1,3,1.68h0l.08-1.46Zm-1.82,3.82a2.58,2.58,0,0,0-2.56-2.66c-1.68,0-2.88,1.42-2.88,3.66,0,1.91,1,3.49,2.86,3.49a2.57,2.57,0,0,0,2.44-1.8,3.13,3.13,0,0,0,.14-.95Z"/><path d="M165.12,212.27c0-1,0-1.82-.08-2.62h1.56l.1,1.6h0a3.56,3.56,0,0,1,3.2-1.82c1.34,0,3.42.8,3.42,4.12v5.79H171.6v-5.59c0-1.56-.58-2.86-2.24-2.86a2.5,2.5,0,0,0-2.36,1.8,2.57,2.57,0,0,0-.12.82v5.83h-1.76Z"/><path d="M176.21,212.27c0-1,0-1.82-.08-2.62h1.55l.08,1.56h.06a3.34,3.34,0,0,1,3-1.78,2.86,2.86,0,0,1,2.74,1.94h0a4,4,0,0,1,1.08-1.26,3.3,3.3,0,0,1,2.14-.68c1.28,0,3.18.84,3.18,4.2v5.71h-1.72v-5.49c0-1.86-.68-3-2.1-3a2.28,2.28,0,0,0-2.08,1.6,2.9,2.9,0,0,0-.14.88v6h-1.72v-5.8c0-1.55-.68-2.67-2-2.67a2.4,2.4,0,0,0-2.18,1.76,2.44,2.44,0,0,0-.14.87v5.84h-1.73Z"/><path d="M193.88,214.82a3.1,3.1,0,0,0,3.32,3.36,6.36,6.36,0,0,0,2.68-.5l.3,1.26a7.84,7.84,0,0,1-3.22.6c-3,0-4.76-2-4.76-4.88s1.72-5.23,4.54-5.23c3.16,0,4,2.78,4,4.57a7,7,0,0,1-.06.82Zm5.16-1.27c0-1.12-.46-2.86-2.44-2.86-1.78,0-2.56,1.64-2.7,2.86Z"/><path d="M202.92,212.27c0-1,0-1.82-.09-2.62h1.57l.1,1.6h0a3.56,3.56,0,0,1,3.2-1.82c1.34,0,3.42.8,3.42,4.12v5.79H209.4v-5.59c0-1.56-.58-2.86-2.24-2.86a2.5,2.5,0,0,0-2.36,1.8,2.57,2.57,0,0,0-.12.82v5.83h-1.76Z"/><path d="M216.06,206.87v2.78h2.52V211h-2.52v5.22c0,1.21.34,1.89,1.32,1.89a3.92,3.92,0,0,0,1-.12l.08,1.32a4.31,4.31,0,0,1-1.56.24,2.44,2.44,0,0,1-1.9-.74,3.54,3.54,0,0,1-.69-2.52V211h-1.5v-1.34h1.5v-2.32Z"/><path d="M43.25,227.23H48.7v1.09H44.56v3.36h3.82v1.08H44.56v4.58H43.25Z"/><path d="M56.62,233.65A3.55,3.55,0,0,1,53,237.5a3.45,3.45,0,0,1-3.48-3.73,3.55,3.55,0,0,1,3.6-3.86A3.44,3.44,0,0,1,56.62,233.65Zm-5.76.07c0,1.59.91,2.79,2.2,2.79s2.21-1.18,2.21-2.82c0-1.23-.62-2.79-2.18-2.79S50.86,232.34,50.86,233.72Z"/><path d="M64.85,233.65a3.55,3.55,0,0,1-3.61,3.85,3.45,3.45,0,0,1-3.48-3.73,3.55,3.55,0,0,1,3.6-3.86A3.44,3.44,0,0,1,64.85,233.65Zm-5.76.07c0,1.59.92,2.79,2.21,2.79s2.2-1.18,2.2-2.82c0-1.23-.61-2.79-2.17-2.79S59.09,232.34,59.09,233.72Z"/><path d="M72.89,237.34l-.94-1a4.15,4.15,0,0,1-3,1.15,2.86,2.86,0,0,1-3.1-2.83,3.32,3.32,0,0,1,2-3v0a3.46,3.46,0,0,1-.84-2.12,2.45,2.45,0,0,1,2.56-2.49,2.11,2.11,0,0,1,2.24,2.15c0,1.06-.62,1.9-2.22,2.7v0c.85,1,1.81,2.1,2.46,2.82a7.39,7.39,0,0,0,1-3h1.2a7.65,7.65,0,0,1-1.45,3.73c.54.57,1.06,1.14,1.66,1.79ZM71.3,235.6c-.6-.66-1.72-1.89-2.85-3.18a2.47,2.47,0,0,0-1.3,2.05,2,2,0,0,0,2.07,2A2.83,2.83,0,0,0,71.3,235.6Zm-3.07-6.17a2.87,2.87,0,0,0,.76,1.82c1-.59,1.68-1.13,1.68-2A1.19,1.19,0,0,0,69.5,228,1.31,1.31,0,0,0,68.23,229.43Z"/><path d="M85.34,233.65a3.55,3.55,0,0,1-3.61,3.85,3.45,3.45,0,0,1-3.48-3.73,3.55,3.55,0,0,1,3.6-3.86A3.44,3.44,0,0,1,85.34,233.65Zm-5.76.07c0,1.59.92,2.79,2.21,2.79s2.2-1.18,2.2-2.82c0-1.23-.61-2.79-2.17-2.79S79.58,232.34,79.58,233.72Z"/><path d="M87,232.45c0-.93,0-1.68-.06-2.37h1.18l.06,1.24h0a2.87,2.87,0,0,1,2.58-1.41c1.76,0,3.08,1.49,3.08,3.69,0,2.61-1.59,3.9-3.3,3.9a2.56,2.56,0,0,1-2.24-1.14h0v3.95H87Zm1.3,1.93a2.87,2.87,0,0,0,.06.54,2,2,0,0,0,2,1.55c1.4,0,2.21-1.14,2.21-2.81,0-1.45-.77-2.7-2.16-2.7a2.12,2.12,0,0,0-2,1.64,2.34,2.34,0,0,0-.09.54Z"/><path d="M96.28,234a2.33,2.33,0,0,0,2.49,2.52,4.8,4.8,0,0,0,2-.38l.22.95a5.85,5.85,0,0,1-2.41.45A3.37,3.37,0,0,1,95,233.83c0-2.19,1.29-3.92,3.4-3.92,2.37,0,3,2.09,3,3.42,0,.27,0,.48,0,.62Zm3.87-.95a1.88,1.88,0,0,0-1.83-2.14,2.19,2.19,0,0,0-2,2.14Z"/><path d="M103.06,232.34c0-.85,0-1.59-.06-2.26h1.15l0,1.42h.06a2.18,2.18,0,0,1,2-1.59,1.38,1.38,0,0,1,.37.05v1.24a2,2,0,0,0-.45,0,1.85,1.85,0,0,0-1.77,1.69,3.72,3.72,0,0,0-.06.62v3.87h-1.3Z"/><path d="M111.91,237.34l-.11-.92h0a2.72,2.72,0,0,1-2.22,1.08,2.06,2.06,0,0,1-2.22-2.08c0-1.76,1.56-2.72,4.36-2.7v-.15a1.49,1.49,0,0,0-1.65-1.68,3.63,3.63,0,0,0-1.89.54l-.3-.87a4.51,4.51,0,0,1,2.39-.65c2.22,0,2.76,1.52,2.76,3v2.72a10.26,10.26,0,0,0,.12,1.74Zm-.2-3.71c-1.44,0-3.07.23-3.07,1.64a1.17,1.17,0,0,0,1.24,1.26,1.81,1.81,0,0,0,1.76-1.22,1.48,1.48,0,0,0,.07-.42Z"/><path d="M116.65,228v2.09h1.89v1h-1.89V235c0,.9.25,1.41,1,1.41a3.13,3.13,0,0,0,.76-.09l.06,1a3.32,3.32,0,0,1-1.17.18,1.82,1.82,0,0,1-1.42-.56,2.66,2.66,0,0,1-.51-1.89v-4h-1.13v-1h1.13v-1.74Z"/><path d="M126.5,233.65a3.55,3.55,0,0,1-3.61,3.85,3.45,3.45,0,0,1-3.48-3.73,3.55,3.55,0,0,1,3.6-3.86A3.44,3.44,0,0,1,126.5,233.65Zm-5.76.07c0,1.59.92,2.79,2.21,2.79s2.2-1.18,2.2-2.82c0-1.23-.61-2.79-2.17-2.79S120.74,232.34,120.74,233.72Z"/><path d="M128.17,232.34c0-.85,0-1.59-.06-2.26h1.15l.05,1.42h.06a2.18,2.18,0,0,1,2-1.59,1.38,1.38,0,0,1,.37.05v1.24a2,2,0,0,0-.45,0,1.85,1.85,0,0,0-1.77,1.69,3.72,3.72,0,0,0-.06.62v3.87h-1.3Z"/><path d="M132.58,232.28v-.9h7.74v.9Zm0,2.94v-.9h7.74v.9Z"/><path d="M144.88,226.93a9.86,9.86,0,0,0-1.89,6.13,10.08,10.08,0,0,0,1.89,6.09h-1a9.64,9.64,0,0,1-2-6.09,9.84,9.84,0,0,1,2-6.13Z"/><path d="M151.45,237.07a4.89,4.89,0,0,1-2.09.42,3.45,3.45,0,0,1-3.61-3.71,3.69,3.69,0,0,1,3.9-3.85,4.42,4.42,0,0,1,1.83.37l-.3,1a3.08,3.08,0,0,0-1.53-.34,2.74,2.74,0,0,0-.05,5.46,3.81,3.81,0,0,0,1.62-.36Z"/><path d="M159.47,233.65a3.55,3.55,0,0,1-3.61,3.85,3.45,3.45,0,0,1-3.48-3.73,3.55,3.55,0,0,1,3.6-3.86A3.44,3.44,0,0,1,159.47,233.65Zm-5.76.07c0,1.59.92,2.79,2.21,2.79s2.2-1.18,2.2-2.82c0-1.23-.61-2.79-2.17-2.79S153.71,232.34,153.71,233.72Z"/><path d="M161.13,232c0-.75,0-1.36,0-2h1.17l.07,1.2h0a2.67,2.67,0,0,1,2.4-1.37c1,0,2.56.6,2.56,3.09v4.34H166v-4.19c0-1.17-.44-2.14-1.69-2.14a1.88,1.88,0,0,0-1.77,1.35,2.2,2.2,0,0,0-.08.61v4.37h-1.33Z"/><path d="M169.28,236a3.51,3.51,0,0,0,1.74.52c1,0,1.41-.48,1.41-1.08s-.38-1-1.35-1.33c-1.3-.47-1.92-1.19-1.92-2.06a2.24,2.24,0,0,1,2.51-2.13,3.63,3.63,0,0,1,1.78.45l-.33,1a2.85,2.85,0,0,0-1.49-.42c-.77,0-1.21.45-1.21,1s.44.87,1.38,1.23c1.26.48,1.91,1.11,1.91,2.19,0,1.28-1,2.18-2.72,2.18a4.15,4.15,0,0,1-2-.5Z"/><path d="M177,228v2.09h1.89v1H177V235c0,.9.26,1.41,1,1.41a3.22,3.22,0,0,0,.77-.09l.06,1a3.37,3.37,0,0,1-1.17.18,1.84,1.84,0,0,1-1.43-.56,2.71,2.71,0,0,1-.51-1.89v-4h-1.12v-1h1.12v-1.74Z"/><path d="M183.59,227.23H189v1.09H184.9v3.36h3.82v1.08H184.9v4.58h-1.31Z"/><path d="M197,233.65a3.55,3.55,0,0,1-3.62,3.85,3.45,3.45,0,0,1-3.48-3.73,3.55,3.55,0,0,1,3.6-3.86A3.45,3.45,0,0,1,197,233.65Zm-5.76.07c0,1.59.91,2.79,2.2,2.79s2.2-1.18,2.2-2.82c0-1.23-.61-2.79-2.17-2.79S191.2,232.34,191.2,233.72Z"/><path d="M205.19,233.65a3.55,3.55,0,0,1-3.61,3.85,3.45,3.45,0,0,1-3.48-3.73,3.55,3.55,0,0,1,3.6-3.86A3.44,3.44,0,0,1,205.19,233.65Zm-5.76.07c0,1.59.92,2.79,2.2,2.79s2.21-1.18,2.21-2.82c0-1.23-.61-2.79-2.17-2.79S199.43,232.34,199.43,233.72Z"/><path d="M213.23,237.34c-.29-.29-.56-.57-.95-1a4.13,4.13,0,0,1-2.95,1.15,2.86,2.86,0,0,1-3.11-2.83,3.33,3.33,0,0,1,2-3v0a3.47,3.47,0,0,1-.85-2.12,2.46,2.46,0,0,1,2.57-2.49,2.1,2.1,0,0,1,2.23,2.15c0,1.06-.61,1.9-2.22,2.7v0c.86,1,1.82,2.1,2.46,2.82a7.38,7.38,0,0,0,1-3h1.2a7.65,7.65,0,0,1-1.46,3.73l1.67,1.79Zm-1.59-1.74c-.6-.66-1.72-1.89-2.85-3.18a2.48,2.48,0,0,0-1.31,2.05,2,2,0,0,0,2.07,2A2.85,2.85,0,0,0,211.64,235.6Zm-3.08-6.17a2.83,2.83,0,0,0,.77,1.82c1-.59,1.68-1.13,1.68-2a1.19,1.19,0,0,0-1.17-1.31A1.32,1.32,0,0,0,208.56,229.43Z"/><path d="M215.13,239.15A10.09,10.09,0,0,0,217,233a9.92,9.92,0,0,0-1.89-6.09h1a9.55,9.55,0,0,1,2,6.1,9.73,9.73,0,0,1-2,6.12Z"/><path d="M83,160.9a8.64,8.64,0,0,1-3.56.64c-3.8,0-6.66-2.4-6.66-6.83a6.71,6.71,0,0,1,7-7.08,7.23,7.23,0,0,1,3.2.6l-.42,1.42a6.34,6.34,0,0,0-2.72-.56c-3.16,0-5.26,2-5.26,5.56,0,3.31,1.9,5.43,5.18,5.43a7,7,0,0,0,2.84-.56Z"/><path d="M93.64,156.42c0,3.58-2.48,5.14-4.82,5.14-2.62,0-4.64-1.92-4.64-5,0-3.25,2.12-5.15,4.8-5.15S93.64,153.45,93.64,156.42Zm-7.68.09c0,2.13,1.22,3.73,2.94,3.73s2.94-1.58,2.94-3.77c0-1.64-.82-3.72-2.9-3.72S86,154.67,86,156.51Z"/><path d="M95.86,154.81c0-1.24,0-2.24-.08-3.16h1.58l.08,1.66h0a3.81,3.81,0,0,1,3.44-1.88c2.34,0,4.1,2,4.1,4.92,0,3.49-2.12,5.21-4.4,5.21a3.39,3.39,0,0,1-3-1.52h0v5.26H95.86Zm1.74,2.59a4,4,0,0,0,.08.72,2.72,2.72,0,0,0,2.64,2.06c1.86,0,2.94-1.52,2.94-3.75,0-1.94-1-3.6-2.88-3.6A2.81,2.81,0,0,0,97.72,155a2.93,2.93,0,0,0-.12.72Z"/><path d="M107.74,151.65l2.12,5.73c.22.64.46,1.4.62,2h0c.18-.58.38-1.32.62-2l1.92-5.68h1.86l-2.64,6.91c-1.26,3.32-2.12,5-3.32,6.06a4.77,4.77,0,0,1-2.16,1.14l-.44-1.48a4.66,4.66,0,0,0,1.54-.86,5.34,5.34,0,0,0,1.48-2,1.26,1.26,0,0,0,.14-.42,1.53,1.53,0,0,0-.12-.46l-3.58-8.93Z"/><path d="M130.24,160.9a8.64,8.64,0,0,1-3.56.64c-3.8,0-6.66-2.4-6.66-6.83a6.71,6.71,0,0,1,7-7.08,7.23,7.23,0,0,1,3.2.6l-.42,1.42a6.34,6.34,0,0,0-2.72-.56c-3.16,0-5.26,2-5.26,5.56,0,3.31,1.9,5.43,5.18,5.43a7,7,0,0,0,2.84-.56Z"/><path d="M140.9,156.42c0,3.58-2.48,5.14-4.82,5.14-2.62,0-4.64-1.92-4.64-5,0-3.25,2.12-5.15,4.8-5.15S140.9,153.45,140.9,156.42Zm-7.68.09c0,2.13,1.22,3.73,2.94,3.73s2.94-1.58,2.94-3.77c0-1.64-.82-3.72-2.9-3.72S133.22,154.67,133.22,156.51Z"/><path d="M143.12,154.27c0-1,0-1.82-.08-2.62h1.56l.1,1.6h0a3.56,3.56,0,0,1,3.2-1.82c1.34,0,3.42.8,3.42,4.12v5.79H149.6v-5.59c0-1.56-.58-2.86-2.24-2.86a2.5,2.5,0,0,0-2.36,1.8,2.57,2.57,0,0,0-.12.82v5.83h-1.76Z"/><path d="M154,159.54a4.61,4.61,0,0,0,2.32.7c1.28,0,1.88-.64,1.88-1.45s-.5-1.29-1.8-1.78c-1.74-.62-2.56-1.58-2.56-2.74,0-1.56,1.26-2.84,3.34-2.84a4.83,4.83,0,0,1,2.38.6l-.44,1.28a3.77,3.77,0,0,0-2-.56c-1,0-1.62.6-1.62,1.32s.58,1.16,1.84,1.64c1.68.64,2.54,1.49,2.54,2.93,0,1.7-1.32,2.9-3.62,2.9a5.52,5.52,0,0,1-2.72-.66Z"/><path d="M164.26,148.87v2.78h2.52V153h-2.52v5.22c0,1.21.34,1.89,1.32,1.89a3.92,3.92,0,0,0,1-.12l.08,1.32a4.31,4.31,0,0,1-1.56.24,2.44,2.44,0,0,1-1.9-.74,3.59,3.59,0,0,1-.68-2.52V153H161v-1.34h1.5v-2.32Z"/><path d="M168.75,154.67c0-1.14,0-2.12-.08-3h1.55l.06,1.9h.08a2.9,2.9,0,0,1,2.68-2.12,1.9,1.9,0,0,1,.5.06v1.66a2.64,2.64,0,0,0-.6-.06,2.47,2.47,0,0,0-2.36,2.26,5.07,5.07,0,0,0-.08.82v5.17h-1.75Z"/><path d="M183.4,158.7c0,1,0,1.88.08,2.64h-1.56l-.1-1.58h0a3.64,3.64,0,0,1-3.2,1.8c-1.52,0-3.34-.84-3.34-4.24v-5.67H177V157c0,1.85.56,3.09,2.16,3.09a2.54,2.54,0,0,0,2.32-1.6,2.59,2.59,0,0,0,.16-.91v-5.94h1.76Z"/><path d="M193.22,161a6.48,6.48,0,0,1-2.78.56,4.6,4.6,0,0,1-4.82-4.95,4.92,4.92,0,0,1,5.2-5.14,5.88,5.88,0,0,1,2.44.5l-.4,1.36a4.08,4.08,0,0,0-2-.46,3.65,3.65,0,0,0-.06,7.29,5,5,0,0,0,2.16-.48Z"/><path d="M197.66,148.87v2.78h2.52V153h-2.52v5.22c0,1.21.34,1.89,1.32,1.89a3.92,3.92,0,0,0,1-.12l.08,1.32a4.31,4.31,0,0,1-1.56.24,2.44,2.44,0,0,1-1.9-.74,3.54,3.54,0,0,1-.69-2.52V153h-1.5v-1.34h1.5v-2.32Z"/><path d="M210.8,156.42c0,3.58-2.48,5.14-4.82,5.14-2.63,0-4.65-1.92-4.65-5,0-3.25,2.13-5.15,4.81-5.15S210.8,153.45,210.8,156.42Zm-7.68.09c0,2.13,1.21,3.73,2.94,3.73s2.94-1.58,2.94-3.77c0-1.64-.82-3.72-2.9-3.72S203.12,154.67,203.12,156.51Z"/><path d="M213,154.67c0-1.14,0-2.12-.08-3h1.55l.06,1.9h.08a2.9,2.9,0,0,1,2.68-2.12,1.9,1.9,0,0,1,.5.06v1.66a2.64,2.64,0,0,0-.6-.06,2.49,2.49,0,0,0-2.37,2.26,5.12,5.12,0,0,0-.07.82v5.17H213Z"/><path d="M117.75,169.23h5.44v1.09h-4.14v3.36h3.83v1.08h-3.83v4.58h-1.3Z"/><path d="M131.11,175.65a3.55,3.55,0,0,1-3.61,3.85,3.45,3.45,0,0,1-3.48-3.73,3.55,3.55,0,0,1,3.6-3.86A3.44,3.44,0,0,1,131.11,175.65Zm-5.76.07c0,1.59.92,2.79,2.2,2.79s2.21-1.18,2.21-2.82c0-1.23-.61-2.79-2.18-2.79S125.35,174.34,125.35,175.72Z"/><path d="M139.35,175.65a3.55,3.55,0,0,1-3.62,3.85,3.45,3.45,0,0,1-3.48-3.73,3.55,3.55,0,0,1,3.6-3.86A3.44,3.44,0,0,1,139.35,175.65Zm-5.76.07c0,1.59.91,2.79,2.2,2.79s2.21-1.18,2.21-2.82c0-1.23-.62-2.79-2.18-2.79S133.59,174.34,133.59,175.72Z"/><path d="M143.88,168.93a9.86,9.86,0,0,0-1.89,6.13,10.08,10.08,0,0,0,1.89,6.09h-1a9.64,9.64,0,0,1-2-6.09,9.84,9.84,0,0,1,2-6.13Z"/><path d="M150.45,179.07a4.89,4.89,0,0,1-2.09.42,3.45,3.45,0,0,1-3.61-3.71,3.69,3.69,0,0,1,3.9-3.85,4.42,4.42,0,0,1,1.83.37l-.3,1a3.08,3.08,0,0,0-1.53-.34,2.74,2.74,0,0,0-.05,5.46,3.81,3.81,0,0,0,1.62-.36Z"/><path d="M158.47,175.65a3.55,3.55,0,0,1-3.61,3.85,3.45,3.45,0,0,1-3.48-3.73,3.55,3.55,0,0,1,3.6-3.86A3.44,3.44,0,0,1,158.47,175.65Zm-5.76.07c0,1.59.92,2.79,2.21,2.79s2.2-1.18,2.2-2.82c0-1.23-.61-2.79-2.17-2.79S152.71,174.34,152.71,175.72Z"/><path d="M160.13,174c0-.75,0-1.36,0-2h1.17l.07,1.2h0a2.67,2.67,0,0,1,2.4-1.37c1,0,2.56.6,2.56,3.09v4.34H165v-4.19c0-1.17-.44-2.14-1.69-2.14a1.88,1.88,0,0,0-1.77,1.35,2.2,2.2,0,0,0-.08.61v4.37h-1.33Z"/><path d="M168.28,178a3.51,3.51,0,0,0,1.74.52c1,0,1.41-.48,1.41-1.08s-.38-1-1.35-1.33c-1.3-.47-1.92-1.19-1.92-2.06a2.24,2.24,0,0,1,2.51-2.13,3.63,3.63,0,0,1,1.78.45l-.33,1a2.85,2.85,0,0,0-1.49-.42c-.77,0-1.21.45-1.21,1s.44.87,1.38,1.23c1.26.48,1.91,1.11,1.91,2.19,0,1.28-1,2.18-2.72,2.18a4.15,4.15,0,0,1-2-.5Z"/><path d="M176,170v2.09h1.89v1H176V177c0,.9.26,1.41,1,1.41a3.22,3.22,0,0,0,.77-.09l.06,1a3.37,3.37,0,0,1-1.17.18,1.84,1.84,0,0,1-1.43-.56,2.71,2.71,0,0,1-.51-1.89v-4h-1.12v-1h1.12v-1.74Z"/><path d="M182.59,169.23H188v1.09H183.9v3.36h3.82v1.08H183.9v4.58h-1.31Z"/><path d="M196,175.65a3.55,3.55,0,0,1-3.62,3.85,3.45,3.45,0,0,1-3.48-3.73,3.55,3.55,0,0,1,3.6-3.86A3.45,3.45,0,0,1,196,175.65Zm-5.76.07c0,1.59.91,2.79,2.2,2.79s2.2-1.18,2.2-2.82c0-1.23-.61-2.79-2.17-2.79S190.2,174.34,190.2,175.72Z"/><path d="M204.19,175.65a3.55,3.55,0,0,1-3.61,3.85,3.45,3.45,0,0,1-3.48-3.73,3.55,3.55,0,0,1,3.6-3.86A3.44,3.44,0,0,1,204.19,175.65Zm-5.76.07c0,1.59.92,2.79,2.2,2.79s2.21-1.18,2.21-2.82c0-1.23-.61-2.79-2.17-2.79S198.43,174.34,198.43,175.72Z"/><path d="M212.23,179.34c-.29-.29-.56-.57-.95-1a4.13,4.13,0,0,1-2.95,1.15,2.86,2.86,0,0,1-3.11-2.83,3.33,3.33,0,0,1,2-3v0a3.47,3.47,0,0,1-.85-2.12,2.46,2.46,0,0,1,2.57-2.49,2.1,2.1,0,0,1,2.23,2.15c0,1.06-.61,1.9-2.22,2.7v0c.86,1,1.82,2.1,2.46,2.82a7.38,7.38,0,0,0,1-3h1.2a7.65,7.65,0,0,1-1.46,3.73l1.67,1.79Zm-1.59-1.74c-.6-.66-1.72-1.89-2.85-3.18a2.48,2.48,0,0,0-1.31,2.05,2,2,0,0,0,2.07,2A2.85,2.85,0,0,0,210.64,177.6Zm-3.08-6.17a2.83,2.83,0,0,0,.77,1.82c1-.59,1.68-1.13,1.68-2a1.19,1.19,0,0,0-1.17-1.31A1.32,1.32,0,0,0,207.56,171.43Z"/><path d="M214.13,181.15A10.09,10.09,0,0,0,216,175a9.92,9.92,0,0,0-1.89-6.09h1a9.55,9.55,0,0,1,2,6.1,9.73,9.73,0,0,1-2,6.12Z"/><path d="M130.86,93a24.92,24.92,0,0,1,3.7-.28c2.5,0,4.28.58,5.46,1.68a6.21,6.21,0,0,1,1.9,4.84,7.15,7.15,0,0,1-1.94,5.25c-1.26,1.26-3.34,1.94-6,1.94a28.08,28.08,0,0,1-3.16-.16ZM132.6,105a11,11,0,0,0,1.76.1c3.72,0,5.74-2.08,5.74-5.73,0-3.18-1.78-5.2-5.46-5.2a9.89,9.89,0,0,0-2,.18Z"/><path d="M145.18,101.82a3.1,3.1,0,0,0,3.32,3.36,6.36,6.36,0,0,0,2.68-.5l.3,1.26a7.84,7.84,0,0,1-3.22.6c-3,0-4.76-2-4.76-4.88s1.72-5.23,4.54-5.23c3.16,0,4,2.78,4,4.57a7,7,0,0,1-.06.82Zm5.16-1.27c0-1.12-.46-2.86-2.44-2.86-1.78,0-2.56,1.64-2.7,2.86Z"/><path d="M154,104.54a4.61,4.61,0,0,0,2.32.7c1.28,0,1.88-.64,1.88-1.45s-.5-1.29-1.8-1.78c-1.74-.62-2.56-1.58-2.56-2.74,0-1.56,1.26-2.84,3.34-2.84a4.83,4.83,0,0,1,2.38.6l-.44,1.28a3.77,3.77,0,0,0-2-.56c-1,0-1.62.6-1.62,1.32s.58,1.16,1.84,1.64c1.68.64,2.54,1.49,2.54,2.93,0,1.7-1.32,2.9-3.62,2.9a5.52,5.52,0,0,1-2.72-.66Z"/><path d="M164.26,93.87v2.78h2.52V98h-2.52v5.22c0,1.21.34,1.89,1.32,1.89a3.92,3.92,0,0,0,1-.12l.08,1.32a4.31,4.31,0,0,1-1.56.24,2.44,2.44,0,0,1-1.9-.74,3.59,3.59,0,0,1-.68-2.52V98H161V96.65h1.5V94.33Z"/><path d="M168.75,99.67c0-1.14,0-2.12-.08-3h1.55l.06,1.9h.08A2.9,2.9,0,0,1,173,96.43a1.9,1.9,0,0,1,.5.06v1.66a2.64,2.64,0,0,0-.6-.06,2.47,2.47,0,0,0-2.36,2.26,5.07,5.07,0,0,0-.08.82v5.17h-1.75Z"/><path d="M183.4,103.7c0,1,0,1.88.08,2.64h-1.56l-.1-1.58h0a3.64,3.64,0,0,1-3.2,1.8c-1.52,0-3.34-.84-3.34-4.24V96.65H177V102c0,1.85.56,3.09,2.16,3.09a2.54,2.54,0,0,0,2.32-1.6,2.59,2.59,0,0,0,.16-.91V96.65h1.76Z"/><path d="M193.22,106a6.48,6.48,0,0,1-2.78.56,4.6,4.6,0,0,1-4.82-5,4.92,4.92,0,0,1,5.2-5.14,5.88,5.88,0,0,1,2.44.5l-.4,1.36a4.08,4.08,0,0,0-2-.46,3.65,3.65,0,0,0-.06,7.29,5,5,0,0,0,2.16-.48Z"/><path d="M197.66,93.87v2.78h2.52V98h-2.52v5.22c0,1.21.34,1.89,1.32,1.89a3.92,3.92,0,0,0,1-.12l.08,1.32a4.31,4.31,0,0,1-1.56.24,2.44,2.44,0,0,1-1.9-.74,3.54,3.54,0,0,1-.69-2.52V98h-1.5V96.65h1.5V94.33Z"/><path d="M210.8,101.42c0,3.58-2.48,5.14-4.82,5.14-2.63,0-4.65-1.92-4.65-5,0-3.25,2.13-5.15,4.81-5.15S210.8,98.45,210.8,101.42Zm-7.68.09c0,2.13,1.21,3.73,2.94,3.73s2.94-1.58,2.94-3.77c0-1.64-.82-3.72-2.9-3.72S203.12,99.67,203.12,101.51Z"/><path d="M213,99.67c0-1.14,0-2.12-.08-3h1.55l.06,1.9h.08a2.9,2.9,0,0,1,2.68-2.12,1.9,1.9,0,0,1,.5.06v1.66a2.64,2.64,0,0,0-.6-.06,2.49,2.49,0,0,0-2.37,2.26,5.12,5.12,0,0,0-.07.82v5.17H213Z"/><path d="M178.06,121.19c-.06-1.5.75-2.27,1.78-2.27a4.73,4.73,0,0,1,2.12.68,4.72,4.72,0,0,0,1.87.63c.55,0,.8-.44.81-1.26h.9c.08,1.68-.79,2.26-1.72,2.26a5.1,5.1,0,0,1-2.18-.66,4.64,4.64,0,0,0-1.8-.66c-.54,0-.86.38-.89,1.28Z"/><path d="M187.4,114.23h5.45v1.09h-4.14v3.36h3.82v1.08h-3.82v4.58H187.4Z"/><path d="M200.77,120.65a3.55,3.55,0,0,1-3.61,3.85,3.45,3.45,0,0,1-3.48-3.73,3.55,3.55,0,0,1,3.6-3.86A3.44,3.44,0,0,1,200.77,120.65Zm-5.76.07c0,1.59.92,2.79,2.2,2.79s2.21-1.18,2.21-2.82c0-1.23-.61-2.79-2.17-2.79S195,119.34,195,120.72Z"/><path d="M209,120.65a3.55,3.55,0,0,1-3.61,3.85,3.45,3.45,0,0,1-3.48-3.73,3.55,3.55,0,0,1,3.6-3.86A3.44,3.44,0,0,1,209,120.65Zm-5.75.07c0,1.59.91,2.79,2.2,2.79s2.2-1.18,2.2-2.82c0-1.23-.61-2.79-2.17-2.79S203.25,119.34,203.25,120.72Z"/><path d="M213.54,113.93a9.86,9.86,0,0,0-1.89,6.13,10.08,10.08,0,0,0,1.89,6.09h-1a9.64,9.64,0,0,1-2-6.09,9.84,9.84,0,0,1,2-6.13Z"/><path d="M214.13,126.15A10.09,10.09,0,0,0,216,120a9.92,9.92,0,0,0-1.89-6.09h1a9.55,9.55,0,0,1,2,6.1,9.73,9.73,0,0,1-2,6.12Z"/><path d="M795.23,48.21c-.07-1.41-.17-3.11-.15-4.37h0c-.35,1.19-.77,2.45-1.28,3.84L792,52.59h-1l-1.64-4.82c-.48-1.42-.89-2.73-1.17-3.93h0c0,1.26-.11,3-.19,4.47l-.27,4.34h-1.25l.71-10.11h1.66l1.73,4.89c.42,1.24.76,2.35,1,3.4h.05c.26-1,.61-2.13,1.07-3.4l1.79-4.89h1.67l.63,10.11h-1.27Z"/><path d="M805.38,49a3.55,3.55,0,0,1-3.61,3.85,3.45,3.45,0,0,1-3.48-3.73,3.55,3.55,0,0,1,3.6-3.86A3.44,3.44,0,0,1,805.38,49Zm-5.76.07c0,1.59.92,2.79,2.21,2.79S804,50.64,804,49c0-1.23-.61-2.79-2.17-2.79S799.62,47.65,799.62,49Z"/><path d="M807.46,45.39l1.42,4.08a18.76,18.76,0,0,1,.59,1.86h0c.17-.6.38-1.2.61-1.86l1.42-4.08h1.38l-2.85,7.26h-1.26l-2.76-7.26Z"/><path d="M814.75,49.26a2.33,2.33,0,0,0,2.48,2.52,4.81,4.81,0,0,0,2-.38l.22,1a5.91,5.91,0,0,1-2.42.45,3.37,3.37,0,0,1-3.56-3.66c0-2.19,1.29-3.92,3.4-3.92,2.37,0,3,2.09,3,3.42a4,4,0,0,1,0,.62Zm3.87-.95a1.88,1.88,0,0,0-1.83-2.14,2.19,2.19,0,0,0-2,2.14Z"/><path d="M768.6,67.47l-1.05,3.18H766.2l3.43-10.11h1.58l3.45,10.11h-1.4l-1.08-3.18Zm3.31-1-1-2.91c-.22-.66-.37-1.26-.52-1.85h0c-.15.6-.32,1.22-.51,1.83l-1,2.93Z"/><path d="M775.83,69.3a3.51,3.51,0,0,0,1.74.52c1,0,1.41-.48,1.41-1.08s-.38-1-1.35-1.33c-1.31-.47-1.92-1.19-1.92-2.06a2.23,2.23,0,0,1,2.5-2.13,3.64,3.64,0,0,1,1.79.45l-.33,1a2.94,2.94,0,0,0-1.49-.42c-.78,0-1.21.46-1.21,1s.43.86,1.38,1.22c1.26.49,1.9,1.11,1.9,2.19,0,1.28-1,2.18-2.71,2.18a4.13,4.13,0,0,1-2-.5Z"/><path d="M781.77,69.3a3.51,3.51,0,0,0,1.74.52c1,0,1.41-.48,1.41-1.08s-.38-1-1.35-1.33c-1.31-.47-1.92-1.19-1.92-2.06a2.23,2.23,0,0,1,2.5-2.13,3.64,3.64,0,0,1,1.79.45l-.33,1a2.94,2.94,0,0,0-1.49-.42c-.78,0-1.21.46-1.21,1s.43.86,1.38,1.22c1.26.49,1.9,1.11,1.9,2.19,0,1.28-1,2.18-2.71,2.18a4.13,4.13,0,0,1-2-.5Z"/><path d="M789.36,61.35a.82.82,0,0,1-1.64,0,.81.81,0,0,1,.83-.83A.79.79,0,0,1,789.36,61.35Zm-1.47,9.3V63.39h1.32v7.26Z"/><path d="M797.65,63.39c0,.53-.06,1.11-.06,2V69.6c0,1.66-.33,2.68-1,3.31a3.86,3.86,0,0,1-2.64.87,4.72,4.72,0,0,1-2.42-.6l.33-1a4.09,4.09,0,0,0,2.13.57c1.35,0,2.34-.71,2.34-2.54V69.4h0A2.57,2.57,0,0,1,794,70.62a3.25,3.25,0,0,1-3.09-3.54c0-2.46,1.61-3.86,3.27-3.86a2.43,2.43,0,0,1,2.27,1.26h0l.06-1.09Zm-1.36,2.86a1.94,1.94,0,0,0-1.92-2c-1.26,0-2.16,1.06-2.16,2.74,0,1.43.72,2.61,2.14,2.61a1.93,1.93,0,0,0,1.83-1.35,2.13,2.13,0,0,0,.11-.7Z"/><path d="M799.69,65.35c0-.75,0-1.36-.06-2h1.17l.08,1.2h0a2.67,2.67,0,0,1,2.4-1.37c1,0,2.56.6,2.56,3.09v4.34h-1.32V66.46c0-1.17-.43-2.14-1.68-2.14a1.94,1.94,0,0,0-1.86,2v4.37h-1.32Z"/><path d="M808,65.35c0-.75,0-1.36-.06-2h1.15l.06,1.17h.05a2.5,2.5,0,0,1,2.28-1.34,2.13,2.13,0,0,1,2,1.46h0a3.08,3.08,0,0,1,.81-1,2.5,2.5,0,0,1,1.61-.51c1,0,2.38.63,2.38,3.16v4.27h-1.29V66.54c0-1.4-.51-2.24-1.57-2.24A1.71,1.71,0,0,0,814,65.5a2.18,2.18,0,0,0-.11.67v4.48h-1.29V66.3c0-1.16-.51-2-1.51-2a1.8,1.8,0,0,0-1.64,1.32,2,2,0,0,0-.1.65v4.38H808Z"/><path d="M821.26,67.26a2.33,2.33,0,0,0,2.49,2.52,4.73,4.73,0,0,0,2-.38l.23.95a5.91,5.91,0,0,1-2.42.45A3.37,3.37,0,0,1,820,67.14c0-2.19,1.29-3.92,3.41-3.92,2.37,0,3,2.09,3,3.42a4,4,0,0,1,0,.62Zm3.87-1a1.87,1.87,0,0,0-1.83-2.14,2.18,2.18,0,0,0-2,2.14Z"/><path d="M828,65.35c0-.75,0-1.36-.06-2h1.17l.08,1.2h0a2.67,2.67,0,0,1,2.4-1.37c1,0,2.56.6,2.56,3.09v4.34H832.9V66.46c0-1.17-.43-2.14-1.68-2.14a1.94,1.94,0,0,0-1.86,2v4.37H828Z"/><path d="M837.9,61.3v2.09h1.89v1H837.9v3.92c0,.9.25,1.41,1,1.41a3.13,3.13,0,0,0,.76-.09l.06,1a3.32,3.32,0,0,1-1.17.18,1.82,1.82,0,0,1-1.42-.56,2.66,2.66,0,0,1-.51-1.89v-4h-1.13v-1h1.13V61.65Z"/><rect class="a" x="751" y="74.83" width="104" height="57.83"/><rect class="a" x="751" y="132.67" width="104" height="57.83"/><rect class="a" x="751" y="190.5" width="104" height="57.83"/><rect class="a" x="751" y="248.33" width="104" height="57.83"/><rect class="a" x="751" y="306.17" width="104" height="57.83"/><path d="M298.28,87.4l.77,1.1a60.13,60.13,0,0,0-10.46,10.9,75.12,75.12,0,0,0-8.79,13.76l-1.62,1.09a27.86,27.86,0,0,0-2.75,2.09,35.53,35.53,0,0,0-1.25-3.38l-.62-1.43a21.78,21.78,0,0,0-2.45-4.55,5.48,5.48,0,0,0-2.53-2q2.37-2.5,4.35-2.51c1.12,0,2.38,1.53,3.75,4.59l.68,1.54a64.25,64.25,0,0,1,9.54-12.17A53.61,53.61,0,0,1,298.28,87.4Z"/><path d="M298.28,145.4l.77,1.1a60.13,60.13,0,0,0-10.46,10.9,75.12,75.12,0,0,0-8.79,13.76l-1.62,1.09a27.86,27.86,0,0,0-2.75,2.09,35.53,35.53,0,0,0-1.25-3.38l-.62-1.43a21.78,21.78,0,0,0-2.45-4.55,5.48,5.48,0,0,0-2.53-1.95q2.37-2.5,4.35-2.51c1.12,0,2.38,1.53,3.75,4.59l.68,1.54a64.25,64.25,0,0,1,9.54-12.17A53.61,53.61,0,0,1,298.28,145.4Z"/><path d="M298.28,203.4l.77,1.1a60.13,60.13,0,0,0-10.46,10.9,75.12,75.12,0,0,0-8.79,13.76l-1.62,1.09a27.86,27.86,0,0,0-2.75,2.09,35.53,35.53,0,0,0-1.25-3.38l-.62-1.43a21.78,21.78,0,0,0-2.45-4.55,5.48,5.48,0,0,0-2.53-1.95q2.37-2.5,4.35-2.51c1.12,0,2.38,1.53,3.75,4.59l.68,1.54a64.25,64.25,0,0,1,9.54-12.17A53.61,53.61,0,0,1,298.28,203.4Z"/><path d="M298.28,261.4l.77,1.1a60.13,60.13,0,0,0-10.46,10.9,75.12,75.12,0,0,0-8.79,13.76l-1.62,1.09a27.86,27.86,0,0,0-2.75,2.09,35.53,35.53,0,0,0-1.25-3.38l-.62-1.43a21.78,21.78,0,0,0-2.45-4.55,5.48,5.48,0,0,0-2.53-2q2.37-2.5,4.35-2.51c1.12,0,2.38,1.53,3.75,4.59l.68,1.54a64.25,64.25,0,0,1,9.54-12.17A53.61,53.61,0,0,1,298.28,261.4Z"/><path d="M298.28,319.4l.77,1.1a60.13,60.13,0,0,0-10.46,10.9,75.12,75.12,0,0,0-8.79,13.76l-1.62,1.09a27.86,27.86,0,0,0-2.75,2.09,35.53,35.53,0,0,0-1.25-3.38l-.62-1.43a21.78,21.78,0,0,0-2.45-4.55,5.48,5.48,0,0,0-2.53-2q2.37-2.5,4.35-2.51c1.12,0,2.38,1.53,3.75,4.59l.68,1.54a64.25,64.25,0,0,1,9.54-12.17A53.61,53.61,0,0,1,298.28,319.4Z"/><path d="M403.28,87.4l.77,1.1a60.13,60.13,0,0,0-10.46,10.9,75.12,75.12,0,0,0-8.79,13.76l-1.62,1.09a27.86,27.86,0,0,0-2.75,2.09,35.53,35.53,0,0,0-1.25-3.38l-.62-1.43a21.78,21.78,0,0,0-2.45-4.55,5.48,5.48,0,0,0-2.53-2q2.37-2.5,4.35-2.51c1.12,0,2.38,1.53,3.75,4.59l.68,1.54a64.25,64.25,0,0,1,9.54-12.17A53.61,53.61,0,0,1,403.28,87.4Z"/><path d="M403.28,145.4l.77,1.1a60.13,60.13,0,0,0-10.46,10.9,75.12,75.12,0,0,0-8.79,13.76l-1.62,1.09a27.86,27.86,0,0,0-2.75,2.09,35.53,35.53,0,0,0-1.25-3.38l-.62-1.43a21.78,21.78,0,0,0-2.45-4.55,5.48,5.48,0,0,0-2.53-1.95q2.37-2.5,4.35-2.51c1.12,0,2.38,1.53,3.75,4.59l.68,1.54a64.25,64.25,0,0,1,9.54-12.17A53.61,53.61,0,0,1,403.28,145.4Z"/><path d="M403.28,203.4l.77,1.1a60.13,60.13,0,0,0-10.46,10.9,75.12,75.12,0,0,0-8.79,13.76l-1.62,1.09a27.86,27.86,0,0,0-2.75,2.09,35.53,35.53,0,0,0-1.25-3.38l-.62-1.43a21.78,21.78,0,0,0-2.45-4.55,5.48,5.48,0,0,0-2.53-1.95q2.37-2.5,4.35-2.51c1.12,0,2.38,1.53,3.75,4.59l.68,1.54a64.25,64.25,0,0,1,9.54-12.17A53.61,53.61,0,0,1,403.28,203.4Z"/><path d="M403.28,87.4l.77,1.1a60.13,60.13,0,0,0-10.46,10.9,75.12,75.12,0,0,0-8.79,13.76l-1.62,1.09a27.86,27.86,0,0,0-2.75,2.09,35.53,35.53,0,0,0-1.25-3.38l-.62-1.43a21.78,21.78,0,0,0-2.45-4.55,5.48,5.48,0,0,0-2.53-2q2.37-2.5,4.35-2.51c1.12,0,2.38,1.53,3.75,4.59l.68,1.54a64.25,64.25,0,0,1,9.54-12.17A53.61,53.61,0,0,1,403.28,87.4Z"/><path d="M403.28,145.4l.77,1.1a60.13,60.13,0,0,0-10.46,10.9,75.12,75.12,0,0,0-8.79,13.76l-1.62,1.09a27.86,27.86,0,0,0-2.75,2.09,35.53,35.53,0,0,0-1.25-3.38l-.62-1.43a21.78,21.78,0,0,0-2.45-4.55,5.48,5.48,0,0,0-2.53-1.95q2.37-2.5,4.35-2.51c1.12,0,2.38,1.53,3.75,4.59l.68,1.54a64.25,64.25,0,0,1,9.54-12.17A53.61,53.61,0,0,1,403.28,145.4Z"/><path d="M403.28,203.4l.77,1.1a60.13,60.13,0,0,0-10.46,10.9,75.12,75.12,0,0,0-8.79,13.76l-1.62,1.09a27.86,27.86,0,0,0-2.75,2.09,35.53,35.53,0,0,0-1.25-3.38l-.62-1.43a21.78,21.78,0,0,0-2.45-4.55,5.48,5.48,0,0,0-2.53-1.95q2.37-2.5,4.35-2.51c1.12,0,2.38,1.53,3.75,4.59l.68,1.54a64.25,64.25,0,0,1,9.54-12.17A53.61,53.61,0,0,1,403.28,203.4Z"/><path d="M508.28,87.4l.77,1.1a60.13,60.13,0,0,0-10.46,10.9,75.12,75.12,0,0,0-8.79,13.76l-1.62,1.09a27.86,27.86,0,0,0-2.75,2.09,35.53,35.53,0,0,0-1.25-3.38l-.62-1.43a21.78,21.78,0,0,0-2.45-4.55,5.48,5.48,0,0,0-2.53-2q2.37-2.5,4.35-2.51c1.12,0,2.38,1.53,3.75,4.59l.68,1.54a64.25,64.25,0,0,1,9.54-12.17A53.61,53.61,0,0,1,508.28,87.4Z"/><path d="M508.28,145.4l.77,1.1a60.13,60.13,0,0,0-10.46,10.9,75.12,75.12,0,0,0-8.79,13.76l-1.62,1.09a27.86,27.86,0,0,0-2.75,2.09,35.53,35.53,0,0,0-1.25-3.38l-.62-1.43a21.78,21.78,0,0,0-2.45-4.55,5.48,5.48,0,0,0-2.53-1.95q2.37-2.5,4.35-2.51c1.12,0,2.38,1.53,3.75,4.59l.68,1.54a64.25,64.25,0,0,1,9.54-12.17A53.61,53.61,0,0,1,508.28,145.4Z"/><path d="M508.28,203.4l.77,1.1a60.13,60.13,0,0,0-10.46,10.9,75.12,75.12,0,0,0-8.79,13.76l-1.62,1.09a27.86,27.86,0,0,0-2.75,2.09,35.53,35.53,0,0,0-1.25-3.38l-.62-1.43a21.78,21.78,0,0,0-2.45-4.55,5.48,5.48,0,0,0-2.53-1.95q2.37-2.5,4.35-2.51c1.12,0,2.38,1.53,3.75,4.59l.68,1.54a64.25,64.25,0,0,1,9.54-12.17A53.61,53.61,0,0,1,508.28,203.4Z"/><path d="M613.28,87.4l.77,1.1a60.13,60.13,0,0,0-10.46,10.9,75.12,75.12,0,0,0-8.79,13.76l-1.62,1.09a27.86,27.86,0,0,0-2.75,2.09,35.53,35.53,0,0,0-1.25-3.38l-.62-1.43a21.78,21.78,0,0,0-2.45-4.55,5.48,5.48,0,0,0-2.53-2q2.37-2.5,4.35-2.51c1.12,0,2.38,1.53,3.75,4.59l.68,1.54a64.25,64.25,0,0,1,9.54-12.17A53.61,53.61,0,0,1,613.28,87.4Z"/><path d="M613.28,145.4l.77,1.1a60.13,60.13,0,0,0-10.46,10.9,75.12,75.12,0,0,0-8.79,13.76l-1.62,1.09a27.86,27.86,0,0,0-2.75,2.09,35.53,35.53,0,0,0-1.25-3.38l-.62-1.43a21.78,21.78,0,0,0-2.45-4.55,5.48,5.48,0,0,0-2.53-1.95q2.37-2.5,4.35-2.51c1.12,0,2.38,1.53,3.75,4.59l.68,1.54a64.25,64.25,0,0,1,9.54-12.17A53.61,53.61,0,0,1,613.28,145.4Z"/><path d="M613.28,203.4l.77,1.1a60.13,60.13,0,0,0-10.46,10.9,75.12,75.12,0,0,0-8.79,13.76l-1.62,1.09a27.86,27.86,0,0,0-2.75,2.09,35.53,35.53,0,0,0-1.25-3.38l-.62-1.43a21.78,21.78,0,0,0-2.45-4.55,5.48,5.48,0,0,0-2.53-1.95q2.37-2.5,4.35-2.51c1.12,0,2.38,1.53,3.75,4.59l.68,1.54a64.25,64.25,0,0,1,9.54-12.17A53.61,53.61,0,0,1,613.28,203.4Z"/><path d="M718.28,87.4l.77,1.1a60.13,60.13,0,0,0-10.46,10.9,75.12,75.12,0,0,0-8.79,13.76l-1.62,1.09a27.86,27.86,0,0,0-2.75,2.09,35.53,35.53,0,0,0-1.25-3.38l-.62-1.43a21.78,21.78,0,0,0-2.45-4.55,5.48,5.48,0,0,0-2.53-2q2.37-2.5,4.35-2.51c1.12,0,2.38,1.53,3.75,4.59l.68,1.54a64.25,64.25,0,0,1,9.54-12.17A53.61,53.61,0,0,1,718.28,87.4Z"/><path d="M823.28,87.4l.77,1.1a60.13,60.13,0,0,0-10.46,10.9,75.12,75.12,0,0,0-8.79,13.76l-1.62,1.09a27.86,27.86,0,0,0-2.75,2.09,35.53,35.53,0,0,0-1.25-3.38l-.62-1.43a21.78,21.78,0,0,0-2.45-4.55,5.48,5.48,0,0,0-2.53-2q2.37-2.5,4.35-2.51c1.12,0,2.38,1.53,3.75,4.59l.68,1.54a64.25,64.25,0,0,1,9.54-12.17A53.61,53.61,0,0,1,823.28,87.4Z"/><path d="M488.4,298.3a8.64,8.64,0,0,1-3.56.64c-3.8,0-6.66-2.4-6.66-6.82a6.71,6.71,0,0,1,7-7.08,7.23,7.23,0,0,1,3.2.6l-.42,1.42a6.34,6.34,0,0,0-2.72-.56c-3.16,0-5.26,2-5.26,5.56,0,3.3,1.9,5.42,5.18,5.42a7,7,0,0,0,2.84-.56Z"/><path d="M499.06,293.82c0,3.58-2.48,5.14-4.82,5.14-2.62,0-4.64-1.92-4.64-5,0-3.24,2.12-5.14,4.8-5.14S499.06,290.86,499.06,293.82Zm-7.68.1c0,2.12,1.22,3.72,2.94,3.72s2.94-1.58,2.94-3.76c0-1.64-.82-3.72-2.9-3.72S491.38,292.08,491.38,293.92Z"/><path d="M501.28,292.22c0-1.24,0-2.24-.08-3.16h1.58l.08,1.66h0a3.81,3.81,0,0,1,3.44-1.88c2.34,0,4.1,2,4.1,4.92,0,3.48-2.12,5.2-4.4,5.2a3.39,3.39,0,0,1-3-1.52h0v5.26h-1.74ZM503,294.8a4,4,0,0,0,.08.72,2.72,2.72,0,0,0,2.64,2.06c1.86,0,2.94-1.52,2.94-3.74,0-1.94-1-3.6-2.88-3.6a2.81,2.81,0,0,0-2.66,2.18,2.85,2.85,0,0,0-.12.72Z"/><path d="M514.62,286.34a1.09,1.09,0,0,1-2.18,0,1.07,1.07,0,0,1,1.1-1.1A1,1,0,0,1,514.62,286.34Zm-2,12.4v-9.68h1.76v9.68Z"/><path d="M518.32,294.22a3.1,3.1,0,0,0,3.32,3.36,6.36,6.36,0,0,0,2.68-.5l.3,1.26a7.84,7.84,0,0,1-3.22.6c-3,0-4.76-2-4.76-4.88s1.72-5.22,4.54-5.22c3.16,0,4,2.78,4,4.56a6.64,6.64,0,0,1-.06.82Zm5.16-1.26c0-1.12-.46-2.86-2.44-2.86-1.78,0-2.56,1.64-2.7,2.86Z"/><path d="M527.12,296.94a4.61,4.61,0,0,0,2.32.7c1.28,0,1.88-.64,1.88-1.44s-.5-1.3-1.8-1.78c-1.74-.62-2.56-1.58-2.56-2.74,0-1.56,1.26-2.84,3.34-2.84a4.83,4.83,0,0,1,2.38.6l-.44,1.28a3.77,3.77,0,0,0-2-.56c-1,0-1.62.6-1.62,1.32s.58,1.16,1.84,1.64c1.68.64,2.54,1.48,2.54,2.92,0,1.7-1.32,2.9-3.62,2.9a5.52,5.52,0,0,1-2.72-.66Z"/><path d="M544.88,298.74l-.14-1.22h-.06a3.61,3.61,0,0,1-3,1.44,2.76,2.76,0,0,1-3-2.78c0-2.34,2.08-3.62,5.82-3.6v-.2a2,2,0,0,0-2.2-2.24,4.82,4.82,0,0,0-2.52.72l-.4-1.16a6,6,0,0,1,3.18-.86c3,0,3.68,2,3.68,4v3.62a13.63,13.63,0,0,0,.16,2.32Zm-.26-4.94c-1.92,0-4.1.3-4.1,2.18a1.56,1.56,0,0,0,1.66,1.68,2.41,2.41,0,0,0,2.34-1.62,1.84,1.84,0,0,0,.1-.56Z"/><path d="M549.16,292.08c0-1.14,0-2.12-.08-3h1.54l.06,1.9h.08a2.9,2.9,0,0,1,2.68-2.12,1.9,1.9,0,0,1,.5.06v1.66a2.64,2.64,0,0,0-.6-.06,2.47,2.47,0,0,0-2.36,2.26,5,5,0,0,0-.08.82v5.16h-1.74Z"/><path d="M556.48,294.22a3.1,3.1,0,0,0,3.32,3.36,6.36,6.36,0,0,0,2.68-.5l.3,1.26a7.84,7.84,0,0,1-3.22.6c-3,0-4.76-2-4.76-4.88s1.72-5.22,4.54-5.22c3.16,0,4,2.78,4,4.56a6.64,6.64,0,0,1-.06.82Zm5.16-1.26c0-1.12-.46-2.86-2.44-2.86-1.78,0-2.56,1.64-2.7,2.86Z"/><path d="M577.86,296.1c0,1,0,1.88.08,2.64h-1.56l-.1-1.58h0A3.64,3.64,0,0,1,573,299c-1.52,0-3.34-.84-3.34-4.24v-5.66h1.76v5.36c0,1.84.56,3.08,2.16,3.08a2.54,2.54,0,0,0,2.32-1.6,2.57,2.57,0,0,0,.16-.9v-5.94h1.76Z"/><path d="M580.54,296.94a4.61,4.61,0,0,0,2.32.7c1.28,0,1.88-.64,1.88-1.44s-.5-1.3-1.8-1.78c-1.74-.62-2.56-1.58-2.56-2.74,0-1.56,1.26-2.84,3.34-2.84a4.83,4.83,0,0,1,2.38.6l-.44,1.28a3.77,3.77,0,0,0-2-.56c-1,0-1.62.6-1.62,1.32s.58,1.16,1.84,1.64c1.68.64,2.54,1.48,2.54,2.92,0,1.7-1.32,2.9-3.62,2.9a5.52,5.52,0,0,1-2.72-.66Z"/><path d="M589.68,294.22a3.1,3.1,0,0,0,3.32,3.36,6.36,6.36,0,0,0,2.68-.5l.3,1.26a7.84,7.84,0,0,1-3.22.6c-3,0-4.76-2-4.76-4.88s1.72-5.22,4.54-5.22c3.16,0,4,2.78,4,4.56a6.64,6.64,0,0,1-.06.82Zm5.16-1.26c0-1.12-.46-2.86-2.44-2.86-1.78,0-2.56,1.64-2.7,2.86Z"/><path d="M607.08,284.54v11.7c0,.86,0,1.84.08,2.5h-1.58l-.08-1.68h0a3.58,3.58,0,0,1-3.3,1.9c-2.34,0-4.14-2-4.14-4.92,0-3.22,2-5.2,4.34-5.2a3.24,3.24,0,0,1,2.92,1.48h0v-5.78ZM605.32,293a3.11,3.11,0,0,0-.08-.74,2.59,2.59,0,0,0-2.54-2c-1.82,0-2.9,1.6-2.9,3.74,0,2,1,3.58,2.86,3.58a2.65,2.65,0,0,0,2.58-2.1,3.06,3.06,0,0,0,.08-.76Z"/><path d="M474,310.34a1.09,1.09,0,0,1-2.18,0,1.07,1.07,0,0,1,1.1-1.1A1,1,0,0,1,474,310.34Zm-2,12.4v-9.68h1.76v9.68Z"/><path d="M476.74,315.68c0-1,0-1.82-.08-2.62h1.56l.1,1.6h0a3.56,3.56,0,0,1,3.2-1.82c1.34,0,3.42.8,3.42,4.12v5.78h-1.76v-5.58c0-1.56-.58-2.86-2.24-2.86a2.5,2.5,0,0,0-2.36,1.8,2.53,2.53,0,0,0-.12.82v5.82h-1.76Z"/><path d="M492.08,316.22c0-1.24,0-2.24-.08-3.16h1.58l.08,1.66h0a3.81,3.81,0,0,1,3.44-1.88c2.34,0,4.1,2,4.1,4.92,0,3.48-2.12,5.2-4.4,5.2a3.39,3.39,0,0,1-3-1.52h0v5.26h-1.74Zm1.74,2.58a4,4,0,0,0,.08.72,2.72,2.72,0,0,0,2.64,2.06c1.86,0,2.94-1.52,2.94-3.74,0-1.94-1-3.6-2.88-3.6a2.81,2.81,0,0,0-2.66,2.18,2.85,2.85,0,0,0-.12.72Z"/><path d="M503.46,308.54h1.76v14.2h-1.76Z"/><path d="M513.54,322.74l-.14-1.22h-.06a3.61,3.61,0,0,1-3,1.44,2.76,2.76,0,0,1-3-2.78c0-2.34,2.08-3.62,5.82-3.6v-.2a2,2,0,0,0-2.2-2.24,4.82,4.82,0,0,0-2.52.72l-.4-1.16a6,6,0,0,1,3.18-.86c3,0,3.68,2,3.68,4v3.62a13.63,13.63,0,0,0,.16,2.32Zm-.26-4.94c-1.92,0-4.1.3-4.1,2.18a1.56,1.56,0,0,0,1.66,1.68,2.41,2.41,0,0,0,2.34-1.62,1.84,1.84,0,0,0,.1-.56Z"/><path d="M524.72,322.38a6.48,6.48,0,0,1-2.78.56,4.6,4.6,0,0,1-4.82-4.94,4.92,4.92,0,0,1,5.2-5.14,5.88,5.88,0,0,1,2.44.5l-.4,1.36a4.08,4.08,0,0,0-2-.46,3.65,3.65,0,0,0-.06,7.28,5,5,0,0,0,2.16-.48Z"/><path d="M527.64,318.22a3.1,3.1,0,0,0,3.32,3.36,6.36,6.36,0,0,0,2.68-.5l.3,1.26a7.84,7.84,0,0,1-3.22.6c-3,0-4.76-2-4.76-4.88s1.72-5.22,4.54-5.22c3.16,0,4,2.78,4,4.56a6.64,6.64,0,0,1-.06.82ZM532.8,317c0-1.12-.46-2.86-2.44-2.86-1.78,0-2.56,1.64-2.7,2.86Z"/><path d="M549.68,317.82c0,3.58-2.48,5.14-4.82,5.14-2.62,0-4.64-1.92-4.64-5,0-3.24,2.12-5.14,4.8-5.14S549.68,314.86,549.68,317.82Zm-7.68.1c0,2.12,1.22,3.72,2.94,3.72s2.94-1.58,2.94-3.76c0-1.64-.82-3.72-2.9-3.72S542,316.08,542,317.92Z"/><path d="M552.08,322.74V314.4h-1.36v-1.34h1.36v-.46a4.56,4.56,0,0,1,1.12-3.38,3.37,3.37,0,0,1,2.36-.9,4.08,4.08,0,0,1,1.5.28l-.24,1.36a2.63,2.63,0,0,0-1.12-.22c-1.5,0-1.88,1.32-1.88,2.8v.52h2.34v1.34h-2.34v8.34Z"/><path d="M562,315.68c0-1,0-1.82-.08-2.62h1.54l.08,1.56h.06a3.34,3.34,0,0,1,3-1.78,2.86,2.86,0,0,1,2.74,1.94h0a4,4,0,0,1,1.08-1.26,3.3,3.3,0,0,1,2.14-.68c1.28,0,3.18.84,3.18,4.2v5.7h-1.72v-5.48c0-1.86-.68-3-2.1-3a2.28,2.28,0,0,0-2.08,1.6,2.9,2.9,0,0,0-.14.88v6H568v-5.8c0-1.54-.68-2.66-2-2.66a2.62,2.62,0,0,0-2.32,2.62v5.84H562Z"/><path d="M587.42,317.82c0,3.58-2.48,5.14-4.82,5.14C580,323,578,321,578,318c0-3.24,2.12-5.14,4.8-5.14S587.42,314.86,587.42,317.82Zm-7.68.1c0,2.12,1.22,3.72,2.94,3.72s2.94-1.58,2.94-3.76c0-1.64-.82-3.72-2.9-3.72S579.74,316.08,579.74,317.92Z"/><path d="M590.18,313.06l1.9,5.44a24.89,24.89,0,0,1,.78,2.48h.06c.22-.8.5-1.6.82-2.48l1.88-5.44h1.84l-3.8,9.68H592l-3.68-9.68Z"/><path d="M599.9,318.22a3.1,3.1,0,0,0,3.32,3.36,6.36,6.36,0,0,0,2.68-.5l.3,1.26a7.84,7.84,0,0,1-3.22.6c-3,0-4.76-2-4.76-4.88s1.72-5.22,4.54-5.22c3.16,0,4,2.78,4,4.56a6.64,6.64,0,0,1-.06.82Zm5.16-1.26c0-1.12-.46-2.86-2.44-2.86-1.78,0-2.56,1.64-2.7,2.86Z"/><path d="M608.7,320.94a4.61,4.61,0,0,0,2.32.7c1.28,0,1.88-.64,1.88-1.44s-.5-1.3-1.8-1.78c-1.74-.62-2.56-1.58-2.56-2.74,0-1.56,1.26-2.84,3.34-2.84a4.83,4.83,0,0,1,2.38.6l-.44,1.28a3.77,3.77,0,0,0-2-.56c-1,0-1.62.6-1.62,1.32s.58,1.16,1.84,1.64c1.68.64,2.54,1.48,2.54,2.92,0,1.7-1.32,2.9-3.62,2.9a5.52,5.52,0,0,1-2.72-.66Z"/><path d="M718.28,261.4l.77,1.1a60.13,60.13,0,0,0-10.46,10.9,75.12,75.12,0,0,0-8.79,13.76l-1.62,1.09a27.86,27.86,0,0,0-2.75,2.09,35.53,35.53,0,0,0-1.25-3.38l-.62-1.43a21.78,21.78,0,0,0-2.45-4.55,5.48,5.48,0,0,0-2.53-2q2.37-2.5,4.35-2.51c1.12,0,2.38,1.53,3.75,4.59l.68,1.54a64.25,64.25,0,0,1,9.54-12.17A53.61,53.61,0,0,1,718.28,261.4Z"/><path d="M823.28,319.4l.77,1.1a60.13,60.13,0,0,0-10.46,10.9,75.12,75.12,0,0,0-8.79,13.76l-1.62,1.09a27.86,27.86,0,0,0-2.75,2.09,35.53,35.53,0,0,0-1.25-3.38l-.62-1.43a21.78,21.78,0,0,0-2.45-4.55,5.48,5.48,0,0,0-2.53-2q2.37-2.5,4.35-2.51c1.12,0,2.38,1.53,3.75,4.59l.68,1.54a64.25,64.25,0,0,1,9.54-12.17A53.61,53.61,0,0,1,823.28,319.4Z"/></svg>